<?xml version="1.0" standalone="no"?>
<!DOCTYPE svg PUBLIC "-//W3C//DTD SVG 1.1//EN" "http://www.w3.org/Graphics/SVG/1.1/DTD/svg11.dtd" >
<svg xmlns="http://www.w3.org/2000/svg" xmlns:xlink="http://www.w3.org/1999/xlink" version="1.1">
<metadata>
Created by FontForge 20190801 at Fri Jul  7 14:55:08 2006
 By Jimmy Wärting
modified (aar, 2006) | Copyright 2005 Monotype Imaging, Inc. All rights reserved. Neo Sans is designed by Sebastian Lester.
</metadata>
<defs>
<font id="NeoSansCyr-Italic" horiz-adv-x="1239" >
  <font-face 
    font-family="Neo Sans Cyr"
    font-weight="400"
    font-style="italic"
    font-stretch="normal"
    units-per-em="2048"
    panose-1="2 11 5 3 0 0 0 9 0 4"
    ascent="1638"
    descent="-410"
    x-height="1126"
    cap-height="1522"
    bbox="-129 -442 2329 1946"
    underline-thickness="0"
    underline-position="0"
    slope="-11"
    unicode-range="U+0020-2122"
  />
<missing-glyph horiz-adv-x="2048" 
d="M256 0v1536h1536v-1536h-1536zM384 128h1280v1280h-1280v-1280z" />
    <glyph glyph-name=".notdef" horiz-adv-x="2048" 
d="M256 0v1536h1536v-1536h-1536zM384 128h1280v1280h-1280v-1280z" />
    <glyph glyph-name=".null" horiz-adv-x="0" 
 />
    <glyph glyph-name="nonmarkingreturn" horiz-adv-x="559" 
 />
    <glyph glyph-name="space" unicode=" " horiz-adv-x="559" 
 />
    <glyph glyph-name="exclam" unicode="!" horiz-adv-x="444" 
d="M580 1507v-6l-203 -1065q-3 -15 -17 -27t-30 -12h-74q-33 0 -33 33v6l172 1065q3 16 18 27.5t31 11.5h103q33 0 33 -33zM352 238v-7l-34 -190q-4 -20 -16.5 -30.5t-29.5 -10.5h-98q-33 0 -33 33v6l34 189q4 20 17 31t29 11h98q33 0 33 -32z" />
    <glyph glyph-name="quotedbl" unicode="&#x22;" horiz-adv-x="741" 
d="M950 1524q0 -8 -6 -23l-186 -387q-11 -22 -20.5 -30.5t-24.5 -8.5h-97q-16 0 -16 15q0 5 1.5 11.5t4.5 12.5l162 387q9 22 21.5 30.5t27.5 8.5h115q18 0 18 -16zM602 1524q0 -8 -6 -23l-186 -387q-11 -22 -20.5 -30.5t-24.5 -8.5h-97q-16 0 -16 15q0 5 1.5 11.5t4.5 12.5
l162 387q9 22 21.5 30.5t27.5 8.5h115q18 0 18 -16z" />
    <glyph glyph-name="numbersign" unicode="#" horiz-adv-x="1352" 
d="M1436 1059v-7t-2 -8l-13 -45q-5 -17 -17.5 -27.5t-29.5 -10.5h-198l-111 -414h201q14 0 20 -8t6 -21v-7t-2 -7l-10 -43q-5 -17 -18.5 -28t-30.5 -11h-201l-100 -383q-5 -16 -15.5 -27.5t-27.5 -11.5h-90q-14 0 -21.5 8t-7.5 21q0 2 1 4.5t1 5.5l100 383h-317l-100 -383
q-5 -16 -16.5 -27.5t-26.5 -11.5h-93q-12 0 -20 8t-8 21q0 3 1 5t1 5l100 383h-190q-14 0 -20.5 8t-6.5 21v7t2 7l12 43q5 17 18 28t30 11h190l111 414h-193q-14 0 -21.5 9t-7.5 21q0 8 2 13l13 45q5 17 18.5 27.5t30.5 10.5h190l105 396q5 15 17 27t28 12h92
q12 0 19.5 -8.5t7.5 -20.5q0 -2 -1 -4.5t-1 -5.5l-105 -396h318l104 396q5 15 16.5 27t28.5 12h90q14 0 20.5 -8t6.5 -19q0 -8 -2 -12l-105 -396h201q14 0 20.5 -8t6.5 -20zM698 961l-110 -414h317l111 414h-318z" />
    <glyph glyph-name="dollar" unicode="$" 
d="M1298 1475l-16 -89q-6 -32 -39 -32h-4q-34 0 -76 3t-88 6t-93.5 6t-92.5 3q-64 0 -125 -7t-109 -31.5t-77 -71t-29 -125.5q0 -31 11.5 -56t34.5 -49.5t57.5 -49.5t80.5 -56l168 -113q75 -51 124.5 -96t78 -88.5t40 -86t11.5 -87.5q0 -99 -36 -178.5t-97.5 -138t-144 -95
t-175.5 -49.5l-32 -193q-3 -17 -17.5 -29t-31.5 -12h-97q-15 0 -23.5 9.5t-8.5 23.5v6v2l32 185q-89 2 -159.5 9.5t-128.5 18.5q-20 3 -27.5 8.5t-7.5 16.5q0 3 1 6t1 6l16 84q3 17 13.5 25t25.5 8h4h2q34 -3 78 -6t89.5 -6t89.5 -4.5t79 -1.5q70 0 134.5 14.5t114 48
t79.5 88t30 133.5q0 30 -11 56.5t-35 54t-62 58t-92 67.5l-178 121q-114 76 -167 155.5t-53 171.5q0 99 34.5 172t94 123t139 78.5t169.5 38.5l28 176q3 17 17.5 29t31.5 12h97q15 0 24 -9.5t9 -23.5v-6v-2l-29 -170q40 -2 82 -4.5t81 -6.5t73 -8t59 -8q28 -3 28 -28v-4v-2z
" />
    <glyph glyph-name="percent" unicode="%" horiz-adv-x="1626" 
d="M639 1536q108 0 166.5 -61t58.5 -175q0 -74 -40 -271.5t-121 -271t-214 -73.5q-105 0 -166 65t-61 179q0 73 40.5 266.5t122.5 267.5t214 74zM510 801q142 0 184.5 218.5t42.5 272.5q0 129 -119 129q-144 0 -186.5 -219t-42.5 -272q0 -129 121 -129zM1583 1522
q14 0 14 -11q0 -10 -14 -28l-1112 -1450q-32 -41 -53 -41h-101q-16 0 -16 12q0 13 12 29l1112 1450q31 39 54 39h104zM1407 838q108 0 166.5 -61.5t58.5 -174.5q0 -76 -42.5 -280t-125.5 -270t-207 -66q-105 0 -166 64.5t-61 178.5q0 69 42 271t126.5 270t208.5 68z
M1278 102q142 0 184.5 219t42.5 273q0 129 -119 129q-144 0 -186.5 -219t-42.5 -273q0 -129 121 -129z" />
    <glyph glyph-name="ampersand" unicode="&#x26;" horiz-adv-x="1389" 
d="M1380 748v-9q-70 -326 -221 -499l119 -159q43 -57 43 -65q0 -16 -25 -16h-143q-13 0 -19.5 4t-31.5 38l-62 83q-190 -139 -432 -139q-212 0 -326 82t-114 237q0 147 84 253.5t293 221.5q-116 159 -140 229.5t-24 137.5q0 196 119.5 292.5t324.5 96.5q193 0 299.5 -74.5
t106.5 -204.5q0 -131 -77 -231.5t-382 -275.5l299 -398q101 137 154 387q6 33 32 33h93q30 0 30 -24zM686 864q190 105 247 141.5t93.5 95t36.5 156.5q0 78 -57.5 111t-180.5 33q-149 0 -212.5 -59.5t-63.5 -194.5q0 -51 19.5 -102.5t117.5 -180.5zM961 231l-332 437
q-161 -88 -219 -168t-58 -189q0 -105 68 -144.5t213 -39.5q188 0 328 104z" />
    <glyph glyph-name="quotesingle" unicode="'" horiz-adv-x="393" 
d="M602 1524q0 -8 -6 -23l-186 -387q-11 -22 -20.5 -30.5t-24.5 -8.5h-97q-16 0 -16 15q0 5 1.5 11.5t4.5 12.5l162 387q9 22 21.5 30.5t27.5 8.5h115q18 0 18 -16z" />
    <glyph glyph-name="parenleft" unicode="(" horiz-adv-x="625" 
d="M850 1528q0 -5 -3.5 -12t-8.5 -13q-119 -139 -207 -293.5t-146 -320.5t-86 -342t-28 -357q0 -164 29 -309t94 -272q2 -5 3 -9t1 -8q0 -20 -25 -20h-86q-15 0 -23.5 3.5t-19.5 18.5q-38 58 -66 129.5t-46.5 152.5t-27.5 169.5t-9 181.5q0 168 29.5 346t89 348t149 323.5
t209.5 273.5q15 15 25 18.5t26 3.5h108q19 0 19 -12z" />
    <glyph glyph-name="parenright" unicode=")" horiz-adv-x="625" 
d="M655 885q0 -168 -29.5 -346t-89 -348t-149 -323.5t-209.5 -273.5q-15 -15 -25.5 -18.5t-25.5 -3.5h-109q-18 0 -18 14q0 10 10 23q120 140 208.5 294t146 320t86 341.5t28.5 357.5q0 154 -29 304t-94 277q-4 8 -4 15q0 9 6.5 15.5t20.5 6.5h84q15 0 23.5 -3.5t19.5 -18.5
q77 -118 113 -282t36 -351z" />
    <glyph glyph-name="asterisk" unicode="*" horiz-adv-x="952" 
d="M754 1227q268 88 274 88q21 0 27 -21l18 -59q2 -4 2 -10q0 -22 -29 -31l-255 -80q158 -219 162.5 -225.5t4.5 -18.5q0 -13 -34.5 -39t-42.5 -26q-10 0 -17.5 5.5t-56.5 74.5l-113 157q-158 -221 -164.5 -229t-21.5 -8q-7 0 -43.5 25.5t-36.5 39.5q0 13 45 74l125 170
l-186 59q-79 24 -89 32.5t-10 19.5q0 3 11.5 39.5t17 43.5t18.5 7q6 0 273 -88v268q0 39 31 39h61q29 0 29 -39v-268z" />
    <glyph glyph-name="plus" unicode="+" horiz-adv-x="1219" 
d="M1221 760q0 -17 -12 -25t-29 -8h-353v-350q0 -17 -7.5 -29t-24.5 -12h-82q-17 0 -25 12t-8 29v350h-350q-17 0 -29 8t-12 25v82q0 17 12 24.5t29 7.5h350v353q0 17 8 29t25 12h82q17 0 24.5 -12t7.5 -29v-353h353q17 0 29 -7.5t12 -24.5v-82v0z" />
    <glyph glyph-name="comma" unicode="," horiz-adv-x="438" 
d="M367 264q20 0 20 -16q0 -18 -23.5 -55t-116.5 -202.5t-103 -178.5t-29 -13h-84q-23 0 -23 19q0 7 97 210.5t106 219.5t37 16h119z" />
    <glyph glyph-name="hyphen" unicode="-" horiz-adv-x="682" 
d="M696 645v-6l-13 -77q-4 -18 -16.5 -28t-29.5 -10h-408q-32 0 -32 29v6l13 77q4 19 17 29.5t29 10.5h408q32 0 32 -31z" />
    <glyph glyph-name="period" unicode="." horiz-adv-x="438" 
d="M348 240v-7l-32 -187q-3 -20 -17 -32t-31 -12h-98q-31 0 -31 33v8l33 188q3 20 16 30.5t29 10.5h98q33 0 33 -32z" />
    <glyph glyph-name="slash" unicode="/" horiz-adv-x="727" 
d="M944 1499q0 -5 -1 -9t-3 -9l-715 -1440q-8 -16 -18.5 -28.5t-26.5 -12.5h-104q-11 0 -17 6.5t-6 16.5q0 5 1 9t3 9l717 1440q8 15 18 28t25 13h105q11 0 16.5 -7t5.5 -16z" />
    <glyph glyph-name="zero" unicode="0" 
d="M891 1536q200 0 303.5 -111t103.5 -327q0 -91 -27 -250q-55 -325 -81 -411q-50 -160 -131 -260t-190.5 -145.5t-250.5 -45.5q-198 0 -303.5 113.5t-105.5 330.5q0 84 27 243q56 327 82 412q50 161 132 260.5t191.5 145t249.5 45.5zM645 143q73 0 138.5 31t119.5 95
t89.5 155t70 292.5t42 255t7.5 120.5q0 153 -62.5 219.5t-185.5 66.5q-74 0 -139.5 -31t-119.5 -95.5t-89 -156t-69 -290t-42 -255t-8 -124.5q0 -152 62 -217.5t186 -65.5z" />
    <glyph glyph-name="one" unicode="1" 
d="M892 1522h84q19 0 26 -7t7 -32l-254 -1442q-9 -41 -45 -41h-113q-20 0 -24.5 8.5t-4.5 32.5l226 1288l-200 -81q-89 -36 -96.5 -38t-13.5 -2q-17 0 -17 16q0 3 10.5 62.5t16 65t99.5 46.5l188 82q94 42 111 42z" />
    <glyph glyph-name="two" unicode="2" 
d="M367 162h682q34 0 34 -29v-6l-16 -89q-3 -18 -16.5 -28t-30.5 -10h-813q-35 0 -35 33v6q42 228 64.5 298t69 142t115.5 135t181 132l240 145q99 59 152 100t84.5 97.5t31.5 138.5t-63.5 117.5t-212.5 35.5q-104 0 -211 -12l-171 -19q-23 0 -23 23q0 7 9 53.5t17.5 55
t63 21t146 23.5t195.5 11q432 0 432 -309q0 -125 -62 -219t-143 -151t-358 -224q-132 -79 -203 -144.5t-103 -131t-56 -195.5z" />
    <glyph glyph-name="three" unicode="3" 
d="M1276 1227q0 -141 -69.5 -260.5t-194.5 -178.5q139 -76 139 -258q0 -267 -153 -405.5t-443 -138.5q-122 0 -233.5 19.5t-124.5 26.5t-13 24q0 7 8 53.5t17 53.5t35 7q211 -29 338 -29q381 0 381 383q0 91 -50.5 142t-148.5 51h-373q-33 0 -33 28q0 5 8 51t16.5 57
t33.5 11h372q137 0 216 94t79 242q0 104 -60.5 142t-215.5 38q-66 0 -163 -10l-193 -20h-7q-29 0 -29 25q0 4 8 50t16 54.5t40 16.5t139 24t209 16q219 0 334 -79t115 -230z" />
    <glyph glyph-name="four" unicode="4" 
d="M1044 561h179q33 0 33 -25q0 -6 -9.5 -60t-20.5 -62t-30 -8h-178l-42 -239q-23 -132 -25.5 -141.5t-12.5 -17.5t-27 -8h-118q-28 0 -28 27q0 7 64 379h-591q-72 0 -72 53q0 13 8.5 69t17 72.5t27.5 38.5l756 850q29 33 65 33h121q20 0 30.5 -4.5t14.5 -14.5v-26z
M979 1239q0 8 -8 8t-19 -12l-571 -645q-10 -14 -10 -19q0 -10 14 -10h473l121 674v4z" />
    <glyph glyph-name="five" unicode="5" 
d="M554 1522h704q36 0 36 -25q0 -4 -9 -55.5t-12.5 -59.5t-14 -13t-28.5 -5h-588l-111 -442h97q547 0 547 -355q0 -278 -162.5 -429.5t-454.5 -151.5q-129 0 -239.5 16t-129.5 25.5t-19 27.5l15 85q4 18 15 26q6 4 32 4q146 -29 353 -29q189 0 294 110.5t105 305.5
q0 122 -87 166.5t-296 44.5h-240q-33 0 -33 27q0 20 72 283t90 347.5t38.5 90.5t25.5 6z" />
    <glyph glyph-name="six" unicode="6" 
d="M449 903q190 41 315 41q202 0 318 -89t116 -253q0 -279 -163 -447.5t-437 -168.5q-405 0 -405 401q0 111 19 220q63 358 72 396q34 148 89 250.5t132.5 164.5t177 90t226.5 28q139 0 242.5 -15.5t124.5 -25.5t21 -27q0 -3 -9.5 -54t-17.5 -60t-24 -9q-8 0 -19 3
q-161 32 -344 32q-182 0 -284.5 -99.5t-149.5 -377.5zM424 762q-40 -221 -45.5 -269t-5.5 -108q0 -141 61 -194.5t191 -53.5q174 0 280.5 130.5t106.5 322.5q0 209 -273 209q-150 0 -315 -37z" />
    <glyph glyph-name="seven" unicode="7" 
d="M1135 1522q196 0 196 -129q0 -65 -31 -113l-806 -1249q-22 -31 -52 -31h-129q-24 0 -24 23q0 15 10 30l844 1286q4 9 4 13q0 10 -12 10h-693q-36 0 -36 24q0 4 10.5 59t21 66t33.5 11h664z" />
    <glyph glyph-name="eight" unicode="8" 
d="M451 795q-144 80 -144 249q0 231 158.5 361.5t415.5 130.5h20q198 0 315 -85t117 -234q0 -133 -70 -248.5t-194 -173.5q145 -91 145 -273q0 -250 -159 -393t-426 -143h-21q-186 0 -307 100t-121 262q0 139 71.5 259.5t199.5 187.5zM838 868q136 0 223.5 90t87.5 228
q0 103 -65.5 150.5t-209.5 47.5h-20q-156 0 -260.5 -89t-104.5 -234q0 -86 53.5 -139.5t168.5 -53.5h127zM655 141q174 0 273.5 100t99.5 273q0 94 -56 150.5t-161 56.5h-127q-144 0 -229.5 -103t-85.5 -260q0 -113 65.5 -165t200.5 -52h20z" />
    <glyph glyph-name="nine" unicode="9" 
d="M1036 618q-190 -40 -315 -40q-202 0 -318 88.5t-116 253.5q0 278 162.5 447t437.5 169q405 0 405 -401q0 -111 -19 -220q-63 -358 -72 -396q-34 -148 -89.5 -250.5t-132.5 -164.5t-176.5 -90t-227.5 -28q-149 0 -249.5 16.5t-119 24.5t-18.5 25q0 4 9 55.5t16.5 60
t23.5 8.5q8 0 21 -2q170 -33 344 -33q182 0 284.5 99.5t149.5 377.5zM1061 760q39 221 45 269t6 108q0 130 -55.5 188.5t-196.5 58.5q-175 0 -281 -130t-106 -322q0 -209 272 -209q151 0 316 37z" />
    <glyph glyph-name="colon" unicode=":" horiz-adv-x="449" 
d="M504 1092v-7l-32 -187q-4 -20 -17.5 -31t-30.5 -11h-96q-14 0 -24.5 9.5t-10.5 23.5v6l32 188q3 20 18 31.5t32 11.5h96q14 0 23.5 -10t9.5 -24zM354 238v-7l-34 -190q-4 -19 -17.5 -30t-30.5 -11h-96q-14 0 -24.5 9.5t-10.5 23.5v6l34 189q4 19 18 30.5t30 11.5h96
q35 0 35 -32z" />
    <glyph glyph-name="semicolon" unicode=";" horiz-adv-x="449" 
d="M504 1094v-9l-32 -188q-4 -19 -17 -30t-29 -11h-100q-33 0 -33 33v6l32 188q3 20 17 31.5t31 11.5h100q31 0 31 -32zM342 262q20 0 20 -16q0 -18 -22.5 -54t-115 -200t-104.5 -180.5t-32 -16.5h-82q-20 0 -20 19q0 9 48 110l99 209q51 107 61.5 118t30.5 11h117z" />
    <glyph glyph-name="less" unicode="&#x3c;" horiz-adv-x="1219" 
d="M1096 307q0 -20 -25 -20h-119q-15 0 -30 5.5t-33 20.5l-494 418q-18 16 -27.5 34.5t-9.5 35.5t9.5 35.5t27.5 33.5l494 418q18 16 33 21.5t30 5.5h119q25 0 25 -21q0 -17 -21 -34l-536 -459l536 -459q11 -9 16 -18t5 -17z" />
    <glyph glyph-name="equal" unicode="=" horiz-adv-x="1219" 
d="M1208 987q0 -17 -12 -25t-29 -8h-788q-17 0 -29 8t-12 25v82q0 17 12 25t29 8h788q17 0 29 -8t12 -25v-82zM1208 535q0 -17 -12 -25t-29 -8h-788q-17 0 -29 8t-12 25v81q0 17 12 25t29 8h788q17 0 29 -8t12 -25v-81z" />
    <glyph glyph-name="greater" unicode="&#x3e;" horiz-adv-x="1219" 
d="M1192 801q0 -17 -9 -35.5t-28 -34.5l-493 -418q-19 -15 -34 -20.5t-30 -5.5h-119q-24 0 -24 20q0 8 4.5 17t15.5 18l537 459l-537 459q-20 17 -20 34q0 21 24 21h119q15 0 30 -5.5t34 -21.5l493 -418q19 -15 28 -33.5t9 -35.5z" />
    <glyph glyph-name="question" unicode="?" horiz-adv-x="913" 
d="M313 1391q15 85 19.5 95.5t20.5 18t114.5 19.5t187.5 12q167 0 262 -65.5t95 -186.5q0 -98 -41.5 -178t-98.5 -140t-229 -223q-78 -72 -107.5 -111.5t-37.5 -94.5l-16 -98q-3 -19 -18 -30.5t-32 -11.5h-90q-31 0 -31 31v8q25 152 40.5 199t54 97t112.5 118
q159 147 200.5 189.5t67 95.5t25.5 129q0 59 -42.5 84.5t-145.5 25.5q-68 0 -139 -6l-140 -12h-6q-25 0 -25 24v11zM446 236v-7l-34 -189q-4 -19 -16.5 -29.5t-28.5 -10.5h-99q-35 0 -35 33v6l35 187q3 20 17.5 32t29.5 12h99q32 0 32 -34z" />
    <glyph glyph-name="at" unicode="@" horiz-adv-x="1571" 
d="M1575 821q0 -201 -52.5 -337t-152.5 -219t-245.5 -118.5t-331.5 -35.5q-160 0 -249 59t-89 182q0 19 1.5 38.5t6.5 41.5l49 240q19 94 53 157t84 100t117.5 52.5t153.5 15.5q40 0 79 -3.5t73 -8t61.5 -9.5t44.5 -9q18 -5 29.5 -13.5t11.5 -25.5q0 -3 -1 -6t-1 -7
l-130 -641q105 17 173 70.5t108 129t56 166.5t16 183q0 100 -31 175.5t-90 125.5t-144.5 75.5t-193.5 25.5q-131 0 -240 -34t-192.5 -100t-140 -163t-82.5 -223l-64 -312q-8 -35 -11 -67.5t-3 -61.5q0 -94 31.5 -164t92 -116.5t148.5 -69.5t201 -23q83 0 156.5 4.5
t138.5 10.5h4q6 0 11 -2t5 -10v-3l-8 -65q-2 -16 -10.5 -21.5t-24.5 -7.5q-12 -2 -41.5 -4.5t-69 -5t-85.5 -4.5t-92 -2q-129 0 -237 31.5t-186 92.5t-121.5 150.5t-43.5 206.5q0 63 12 131l64 320q61 313 267 471.5t541 158.5q125 0 230.5 -37t182 -105t119 -164.5
t42.5 -215.5zM1024 838q-32 5 -67 8.5t-70 3.5q-91 0 -139.5 -44t-67.5 -138l-47 -234q-5 -21 -6.5 -40.5t-1.5 -35.5q0 -35 12.5 -54.5t33 -30t47 -13t54.5 -2.5h53h2h7q20 0 39.5 0.5t39.5 3.5z" />
    <glyph glyph-name="A" unicode="A" horiz-adv-x="1296" 
d="M1243 39q0 -39 -35 -39h-123q-13 0 -20 9t-14 78l-45 415h-531l-150 -332q-68 -150 -77.5 -160t-28.5 -10h-125q-28 0 -28 27q0 11 4 20l614 1333q71 156 236 156q163 0 180 -154l143 -1335v-8zM995 664l-51 514q-16 161 -17 167t-5 13.5t-10.5 11.5t-16.5 4
q-30 0 -47 -37l-305 -673h452z" />
    <glyph glyph-name="B" unicode="B" horiz-adv-x="1262" 
d="M1354 1176q0 -93 -58.5 -210.5t-224.5 -179.5q82 -34 127 -106t45 -164q0 -122 -64 -258.5t-211.5 -204t-408.5 -67.5q-129 0 -232.5 7.5t-129 19t-25.5 44.5q0 11 2 23l240 1364q5 32 23.5 50.5t48.5 24t131 11.5t204 6q257 0 395 -82.5t138 -241.5v-36zM1167 1171v23
q0 96 -82.5 140t-289.5 44q-33 0 -205 -6l-90 -508h315q197 0 274.5 96t77.5 211zM375 152q134 -9 211 -9q286 0 378.5 104.5t92.5 266.5q0 201 -266 201h-316z" />
    <glyph glyph-name="C" unicode="C" horiz-adv-x="1116" 
d="M217 455q0 84 26 230q54 300 77 373q43 139 110.5 233.5t149.5 148t170.5 75t183.5 21.5q104 0 223.5 -16t131.5 -21t12 -16q0 -3 -10 -58.5t-12 -62.5t-8 -9.5t-24 -2.5q-215 18 -340 18q-91 0 -169.5 -34t-140.5 -110.5t-99 -198.5q-17 -56 -71 -354q-24 -132 -24 -204
q0 -313 289 -313l351 16q27 0 27 -20q0 -6 -9 -58t-14.5 -61.5t-33.5 -17t-118.5 -17.5t-232.5 -10q-194 0 -319.5 122t-125.5 347z" />
    <glyph glyph-name="D" unicode="D" horiz-adv-x="1313" 
d="M418 1464q3 22 20 39t159 25t249 8q248 0 385 -124.5t137 -354.5q0 -74 -23 -212q-51 -295 -69 -357q-38 -131 -103 -226.5t-154 -156.5t-200.5 -90t-245.5 -29q-123 0 -236 7t-135.5 13.5t-27 15t-4.5 35.5zM375 150q57 -5 227 -5q94 0 176.5 25.5t152 82t118.5 148
t72 228.5l42 246q19 108 19 172q0 329 -365 329q-129 0 -227 -6z" />
    <glyph glyph-name="E" unicode="E" horiz-adv-x="1128" 
d="M840 1368q-112 0 -170 -22t-83 -67.5t-45 -161.5l-42 -247h628q34 0 34 -31q0 -5 -8 -54t-17.5 -61.5t-36.5 -12.5h-629q-70 -404 -70 -428q0 -75 51.5 -102t172.5 -27h389q25 0 25 -16l-16 -91q-6 -36 -13.5 -42t-146.5 -12.5t-269 -6.5q-182 0 -279.5 75.5t-97.5 219.5
q0 39 8 86l137 788q36 202 147.5 291.5t356.5 89.5q216 0 306.5 -8t99.5 -12.5t9 -15.5q0 -5 -11 -62.5t-16.5 -63.5t-18.5 -6h-395z" />
    <glyph glyph-name="F" unicode="F" horiz-adv-x="1128" 
d="M840 1368q-112 0 -170 -22t-83 -67.5t-45 -161.5l-42 -247h628q35 0 35 -28q0 -4 -8.5 -55t-17.5 -63.5t-37 -12.5h-629l-74 -424q-43 -247 -45 -257t-12.5 -20t-32.5 -10h-104q-22 0 -28.5 9t-6.5 32l194 1114q36 202 145.5 291.5t358.5 89.5q221 0 304.5 -6.5t97 -13
t13.5 -17.5q0 -3 -10.5 -60t-15.5 -64t-20 -7h-395z" />
    <glyph glyph-name="G" unicode="G" horiz-adv-x="1253" 
d="M936 164l66 372q39 216 41 225t13.5 19.5t26.5 10.5h111q33 0 33 -35v-6l-80 -449q-44 -243 -46 -250.5t-10 -16t-19 -14t-127 -20t-298 -14.5q-190 0 -311 126.5t-121 354.5q0 72 25 219q51 297 74 372q43 139 110.5 233.5t150.5 147.5t173.5 75t189.5 22q149 0 265 -13
t132.5 -18.5t16.5 -21.5q0 -7 -10.5 -64.5t-14.5 -61t-31 -3.5q-166 14 -387 14q-85 0 -162.5 -30.5t-143 -103.5t-96.5 -166t-69.5 -317t-38.5 -290q0 -309 277 -309q114 0 260 12z" />
    <glyph glyph-name="H" unicode="H" horiz-adv-x="1393" 
d="M1356 1522h104q19 0 26 -9t7 -32l-252 -1440q-3 -17 -17.5 -29t-31.5 -12h-105q-33 0 -33 32q0 4 30 176l90 513h-701l-75 -432q-44 -250 -46 -260t-12.5 -19.5t-34.5 -9.5h-104q-33 0 -33 41l252 1440q7 41 49 41h104q34 0 34 -31q0 -5 -26 -156l-79 -448h700l67 382
q38 215 40.5 225t12.5 19t34 9z" />
    <glyph glyph-name="I" unicode="I" horiz-adv-x="547" 
d="M485 1522h113q20 0 25.5 -7.5t5.5 -31.5l-254 -1442q-6 -41 -45 -41h-113q-19 0 -24 9t-5 32l254 1442q8 39 43 39z" />
    <glyph glyph-name="J" unicode="J" horiz-adv-x="526" 
d="M488 1522h109q33 0 33 -39l-277 -1559q-27 -152 -116 -222.5t-252 -70.5q-114 0 -114 33q0 3 8 50.5t16.5 57t35.5 9.5h80q73 0 107 29t49 114l276 1559q8 39 45 39z" />
    <glyph glyph-name="K" unicode="K" horiz-adv-x="1243" 
d="M496 840l688 663q21 19 45 19h160q26 0 26 -21q0 -13 -10 -22l-758 -697l490 -749q4 -8 4 -13q0 -20 -23 -20h-147q-28 0 -41 20l-455 709l-77 -439q-44 -251 -46 -261.5t-11.5 -19.5t-31.5 -9h-112q-29 0 -29 41l254 1442q8 39 45 39h108q34 0 34 -31q0 -4 -29 -167z
" />
    <glyph glyph-name="L" unicode="L" horiz-adv-x="1053" 
d="M1036 129v-6q-15 -98 -16.5 -109t-131 -19.5t-294.5 -8.5q-199 0 -287 72t-88 218q0 57 10 115l191 1090q7 41 49 41h104q33 0 33 -41l-194 -1114q-11 -55 -11 -91q0 -73 50 -97.5t174 -24.5h385q26 0 26 -25z" />
    <glyph glyph-name="M" unicode="M" horiz-adv-x="1559" 
d="M1470 1522h140q19 0 31.5 -8t15 -16.5t2.5 -35.5l-250 -1421q-7 -41 -49 -41h-100q-33 0 -33 41l211 1204q0 12 -2 12t-6 -6l-396 -600q-38 -59 -102 -59h-94q-35 0 -53.5 12.5t-28.5 46.5l-123 408q-59 196 -61 199.5t-5 3.5t-6 -17l-211 -1204q-7 -41 -49 -41h-100
q-33 0 -33 41l250 1421q11 60 69 60h127q28 0 40.5 -6t19.5 -29l215 -703q7 -22 20 -22q14 0 29 22l461 703q21 35 71 35z" />
    <glyph glyph-name="N" unicode="N" horiz-adv-x="1393" 
d="M1313 1483q7 39 43 39h108q31 0 31 -31v-8l-252 -1424q-10 -59 -69 -59h-119q-47 0 -60 33l-430 1202l-4 6q-4 0 -4 -6l-211 -1196q-2 -15 -15 -27t-28 -12h-119q-12 0 -16 4.5t-4 20.5l254 1439q10 58 69 58h101q41 0 54 -8.5t22 -32.5l426 -1186q5 -16 8 -16t6 16z" />
    <glyph glyph-name="O" unicode="O" horiz-adv-x="1354" 
d="M948 1536q213 0 335 -124t122 -347q0 -121 -68.5 -457t-236.5 -479t-424 -143q-214 0 -336.5 123t-122.5 348q0 130 71 468t240 474.5t420 136.5zM705 154q88 0 162 30.5t133 93.5t96.5 153.5t73 291t41.5 238t6 102.5q0 155 -72.5 230t-224.5 75q-113 0 -202 -48.5
t-152 -150t-93 -256.5q-65 -330 -65 -440q0 -169 75.5 -244t221.5 -75z" />
    <glyph glyph-name="P" unicode="P" horiz-adv-x="1214" 
d="M453 616l-64 -364q-37 -212 -39 -222t-12 -20t-31 -10h-110q-17 0 -23 9t-6 32l250 1427q3 22 23 39t157.5 23t220.5 6q244 0 373 -92t129 -268q0 -133 -47.5 -253.5t-137.5 -190t-209.5 -98t-271.5 -28.5q-74 0 -202 10zM479 770q188 -8 205 -8q172 0 273.5 53
t139.5 149.5t38 198.5q0 118 -81.5 166.5t-260.5 48.5q-102 0 -207 -8z" />
    <glyph glyph-name="Q" unicode="Q" horiz-adv-x="1354" 
d="M584 -8q-177 28 -272 148.5t-95 316.5q0 130 71 468t240 474.5t420 136.5q213 0 335 -124t122 -347q0 -80 -40 -305t-76.5 -337.5t-113 -212t-179.5 -153.5t-232 -67q-21 -126 -21 -144q0 -36 21.5 -49.5t89.5 -13.5h121q39 0 39 -26q0 -4 -7 -43.5t-13 -48.5
t-28.5 -17.5t-57 -12.5t-81.5 -4q-148 0 -208 44t-60 143q0 38 25 174zM705 154q88 0 162 30.5t133 93.5t96.5 153.5t73 291t41.5 238t6 102.5q0 155 -72.5 230t-224.5 75q-113 0 -202 -48.5t-152 -150t-93 -256.5q-65 -330 -65 -440q0 -169 75.5 -244t221.5 -75z" />
    <glyph glyph-name="R" unicode="R" horiz-adv-x="1280" 
d="M457 643l-66 -379q-39 -224 -41 -233.5t-12 -20t-31 -10.5h-110q-17 0 -23 8.5t-6 32.5l252 1434q5 34 36.5 41.5t161 13.5t222.5 6q240 0 370.5 -94t130.5 -271q0 -127 -49.5 -237.5t-140 -176.5t-213.5 -89l266 -629q4 -8 4 -19q0 -20 -22 -20h-142q-22 0 -27.5 5
t-88.5 201l-183 431h-63q-72 0 -225 6zM485 801q105 -4 226 -4q446 0 446 366q0 112 -75 158.5t-271 46.5q-181 0 -227 -6z" />
    <glyph glyph-name="S" unicode="S" horiz-adv-x="1126" 
d="M305 1149q0 124 62.5 210.5t182 131.5t281.5 45q114 0 244.5 -10t149.5 -16.5t19 -21.5q0 -4 -9 -61.5t-16.5 -64t-34.5 -6.5q-135 12 -353 12q-181 0 -260 -52t-79 -157q0 -72 37 -118.5t114 -97.5l199 -134q138 -92 198 -180t60 -205q0 -210 -158.5 -324t-413.5 -114
q-104 0 -226 13t-138.5 20t-16.5 24q0 4 9.5 58t16 59.5t36.5 5.5q138 -12 336 -12q358 0 358 270q0 71 -41 119t-129 109l-205 139q-223 151 -223 358z" />
    <glyph glyph-name="T" unicode="T" horiz-adv-x="1208" 
d="M938 1362l-231 -1321q-8 -41 -45 -41h-113q-29 0 -29 41l232 1321h-400q-35 0 -35 25q0 4 10 60.5t22.5 65.5t31.5 9h985q34 0 34 -26q0 -4 -10 -60.5t-19.5 -65t-33.5 -8.5h-399z" />
    <glyph glyph-name="U" unicode="U" horiz-adv-x="1356" 
d="M1321 1522h111q19 0 25.5 -7t6.5 -32l-164 -930q-52 -293 -201.5 -430t-422.5 -137q-210 0 -324 108t-114 309q0 69 14 150l164 930q8 39 45 39h110q19 0 26 -8t7 -31l-164 -930q-16 -89 -16 -147q0 -135 68.5 -198t212.5 -63q176 0 272.5 96t134.5 312l164 930
q8 39 45 39z" />
    <glyph glyph-name="V" unicode="V" horiz-adv-x="1317" 
d="M1356 1522h125q30 0 30 -24q0 -10 -6 -23l-612 -1334q-72 -155 -236 -155q-165 0 -182 155l-143 1334q0 30 9.5 38.5t33.5 8.5h114q28 0 31 -31l127 -1305q3 -43 33 -43q28 0 47 43l588 1305q15 31 41 31z" />
    <glyph glyph-name="W" unicode="W" horiz-adv-x="1690" 
d="M1733 1522h120q30 0 30 -24q0 -7 -3 -17l-471 -1385q-36 -104 -145 -104h-88q-43 0 -69 28t-30 74l-67 758q-3 18 -11 18q-10 0 -18 -18l-336 -758q-20 -47 -56.5 -74.5t-78.5 -27.5h-86q-61 0 -85 25t-24 77v2l17 1385q0 41 43 41h117q28 0 28 -35l-31 -1305
q0 -30 7 -30q5 0 18 30l334 758q36 82 110 82h132q74 0 81 -82l68 -758q3 -30 8 -30q7 0 17 30l428 1305q12 35 41 35z" />
    <glyph glyph-name="X" unicode="X" horiz-adv-x="1323" 
d="M819 920l475 581q16 21 43 21h107q29 0 29 -25q0 -12 -11 -24l-571 -707l336 -715q4 -12 4 -16q0 -35 -39 -35h-102q-22 0 -28 13l-286 608l-477 -590q-25 -31 -49 -31h-123q-29 0 -29 25q0 14 11 26l593 727l-325 695q-4 8 -4 14q0 35 37 35h104q17 0 22.5 -5.5
t92.5 -191.5z" />
    <glyph glyph-name="Y" unicode="Y" horiz-adv-x="1194" 
d="M616 623q-58 24 -88 135l-188 712q-4 13 -4 22q0 30 41 30h119q24 0 32 -29l105 -424q60 -244 65 -259.5t14 -24.5t19 -9q23 0 55 53l404 664q18 29 51 29h119q30 0 30 -25q0 -10 -10 -27l-444 -712q-69 -111 -133 -135l-65 -369q-38 -214 -40 -224t-12 -20t-31 -10h-112
q-30 0 -30 28q0 6 26 154z" />
    <glyph glyph-name="Z" unicode="Z" horiz-adv-x="1223" 
d="M1128 1522q193 0 193 -142q0 -82 -80 -174l-879 -1009q-8 -9 -8 -17q0 -12 17 -12h731q36 0 36 -24q0 -3 -10.5 -64t-18.5 -70.5t-36 -9.5h-702q-205 0 -205 156q0 82 59 151l871 1008q16 19 16 28q0 13 -18 13h-670q-35 0 -35 27q0 4 9.5 62.5t19 67.5t35.5 9h675z" />
    <glyph glyph-name="bracketleft" unicode="[" horiz-adv-x="670" 
d="M881 1481l-11 -68q-3 -17 -17.5 -29t-31.5 -12h-233l-285 -1620h234q15 0 23.5 -9.5t8.5 -23.5v-8l-12 -67q-3 -17 -16.5 -29t-30.5 -12h-381q-14 0 -21.5 9t-7.5 21v9l326 1841q3 15 14 27t27 12h381q15 0 24 -9.5t9 -23.5v-8z" />
    <glyph glyph-name="backslash" unicode="\" horiz-adv-x="727" 
d="M688 37q0 -14 -9.5 -25.5t-25.5 -11.5h-104q-16 0 -21.5 12.5t-7.5 28.5l-211 1440v4q0 14 10 25.5t25 11.5h105q15 0 19.5 -13t6.5 -28l213 -1440v-4v0z" />
    <glyph glyph-name="bracketright" unicode="]" horiz-adv-x="670" 
d="M768 1483l-326 -1841q-3 -16 -14 -27.5t-27 -11.5h-381q-15 0 -24.5 9.5t-9.5 25.5v6l12 67q3 17 17.5 29t31.5 12h234l284 1620h-233q-16 0 -24.5 9.5t-8.5 23.5v8l10 68q3 17 17.5 29t31.5 12h381q14 0 21.5 -9.5t7.5 -21.5v-8z" />
    <glyph glyph-name="asciicircum" unicode="^" horiz-adv-x="1219" 
d="M1184 1171q0 -8 -6 -13t-17 -5h-123q-21 0 -31.5 9t-25.5 28l-211 246l-211 -246q-15 -19 -25.5 -28t-31.5 -9h-123q-11 0 -17 5t-6 13q0 13 9 23l235 305q17 22 28.5 29.5t33.5 7.5h217q21 0 32.5 -7.5t28.5 -29.5l236 -305q8 -11 8 -23z" />
    <glyph glyph-name="underscore" unicode="_" horiz-adv-x="1012" 
d="M1053 -133l-11 -51q-3 -17 -16.5 -25t-30.5 -8h-1054q-16 0 -25.5 6.5t-9.5 20.5v6l10 51q3 17 15.5 25t29.5 8h1055q15 0 26 -6.5t11 -20.5v-6z" />
    <glyph glyph-name="grave" unicode="`" horiz-adv-x="762" 
d="M725 1294q0 -8 -4.5 -13t-15.5 -5h-111q-17 0 -24.5 7.5t-18.5 23.5l-184 258q-7 8 -7 14q0 8 7 12t18 4h135q19 0 27.5 -6.5t19.5 -23.5l154 -254q3 -5 3.5 -8.5t0.5 -8.5z" />
    <glyph glyph-name="a" unicode="a" horiz-adv-x="1079" 
d="M801 109q-98 -72 -167 -97.5t-163 -25.5q-145 0 -232 95t-87 267q0 87 52 336t189.5 353t339.5 104q94 0 200 -16q88 -13 165 -33q19 -5 26 -14q2 -4 2 -31l-176 -1006q-7 -41 -47 -41h-82q-32 0 -32 29q0 8 12 80zM932 969q-105 20 -199 20q-132 0 -224.5 -68
t-134.5 -282.5t-42 -288.5q0 -213 178 -213q123 0 297 119z" />
    <glyph glyph-name="b" unicode="b" horiz-adv-x="1108" 
d="M518 1120q120 21 244 21q179 0 274.5 -95t95.5 -272q0 -109 -51.5 -338.5t-182 -339.5t-339.5 -110q-134 0 -254 15.5t-136.5 24.5t-16.5 23q0 7 2 19l251 1433q8 39 46 39h104q32 0 32 -26q0 -5 -69 -394zM348 156q140 -13 238 -13q120 0 203.5 76t124 276t40.5 283
q0 108 -52 156.5t-167 48.5q-161 0 -244 -14z" />
    <glyph glyph-name="c" unicode="c" horiz-adv-x="926" 
d="M975 968q-5 0 -12 1q-103 14 -250 14q-111 0 -198 -80t-123 -277t-36 -266q0 -217 207 -217q136 0 197 7.5t73 7.5q26 0 26 -21q0 -4 -8.5 -56t-21.5 -61.5t-98 -21.5t-194 -12q-169 0 -264 104.5t-95 280.5q0 89 47 316t180 340.5t334 113.5q97 0 180.5 -11.5t95 -18
t11.5 -20.5q0 -7 -8.5 -57t-16 -58t-26.5 -8z" />
    <glyph glyph-name="d" unicode="d" horiz-adv-x="1108" 
d="M1053 1501q7 39 47 39h104q18 0 23.5 -7.5t5.5 -31.5l-252 -1433q-4 -27 -22 -38.5t-147 -27.5t-265 -16q-178 0 -274.5 99.5t-96.5 276.5q0 61 35 255t102.5 305.5t175.5 165t261 53.5q124 0 235 -21zM958 969q-77 14 -235 14q-124 0 -207.5 -77.5t-122.5 -277.5
t-39 -270q0 -215 219 -215q96 0 242 13z" />
    <glyph glyph-name="e" unicode="e" horiz-adv-x="1114" 
d="M373 506q-17 -95 -17 -150q0 -219 254 -219q113 0 213 12l157 18q24 0 24 -21q0 -7 -8 -52.5t-14.5 -54t-18 -13t-81 -16.5t-141.5 -18t-157 -6q-182 0 -293 98.5t-111 280.5q0 102 52.5 323.5t189.5 337t340 115.5q177 0 276 -103.5t99 -277.5q0 -59 -16 -143t-24 -97.5
t-34 -13.5h-690zM942 643q14 70 14 123q0 217 -221 217q-124 0 -214 -88.5t-122 -251.5h543z" />
    <glyph glyph-name="f" unicode="f" horiz-adv-x="758" 
d="M818 1415q-66 0 -97 -17t-42 -56t-43 -216h221q34 0 34 -27q0 -2 -7.5 -51.5t-18.5 -57t-35 -7.5h-219l-182 -1032q-25 -143 -97 -214t-239 -71q-154 0 -154 35q0 3 8 48.5t18 51.5t30 6h96q80 0 112 33.5t46 110.5l182 1032q-198 13 -211 18.5t-13 23.5q0 3 7 41t17 49
t32 11h193q36 202 56 262.5t63 101.5t100 55t143 14q61 0 107 -10t46 -27q0 -2 -8 -47t-17 -52.5t-30 -7.5h-98z" />
    <glyph glyph-name="g" unicode="g" horiz-adv-x="1108" 
d="M792 14q-136 -28 -234 -28q-182 0 -281.5 94t-99.5 272q0 68 35.5 268t104 310.5t177.5 160.5t267 50q94 0 213 -19q102 -16 155 -31q19 -5 24 -15q1 -1 1 -29l-184 -1045q-39 -222 -143 -313.5t-345 -91.5q-137 0 -237 15.5t-119.5 26t-19.5 24.5q0 10 8 52.5t16 48
t37 5.5q209 -25 342 -25q136 0 197 53t86 217zM959 967q-122 22 -225 22q-130 0 -213.5 -73t-124.5 -277.5t-41 -294.5q0 -114 55 -160.5t175 -46.5q124 0 233 23z" />
    <glyph glyph-name="h" unicode="h" horiz-adv-x="1141" 
d="M516 1112q127 29 240 29q183 0 283 -88.5t100 -239.5q0 -47 -21 -158l-64 -359q-42 -248 -46 -263.5t-15 -24t-32 -8.5h-99q-33 0 -33 31q0 5 30 179l91 519q8 41 8 82q0 93 -54.5 134.5t-174.5 41.5q-129 0 -242 -31l-159 -915q-8 -41 -49 -41h-99q-22 0 -27.5 8.5
t-5.5 32.5l256 1460q8 39 46 39h104q32 0 32 -27q0 -4 -69 -401z" />
    <glyph glyph-name="i" unicode="i" horiz-adv-x="506" 
d="M475 1552h105q33 0 33 -28q0 -7 -11 -70l-17 -96q-6 -35 -17 -43t-33 -8h-105q-34 0 -34 30q0 4 15 90.5t17.5 96t14.5 19t32 9.5zM401 1126h99q20 0 28 -8q4 -5 4 -33l-182 -1044q-7 -41 -49 -41h-98q-21 0 -27 9.5t-6 31.5l182 1044q7 41 49 41z" />
    <glyph glyph-name="j" unicode="j" horiz-adv-x="506" 
d="M475 1552h105q33 0 33 -28q0 -7 -11 -70l-17 -96q-6 -35 -17 -43t-33 -8h-105q-34 0 -34 30q0 4 15 90.5t17.5 96t14.5 19t32 9.5zM139 -131l213 1216q7 41 49 41h99q20 0 28 -8q4 -5 4 -33l-213 -1216q-24 -141 -94 -206.5t-213 -65.5q-72 0 -105.5 7t-33.5 27
q0 4 7.5 50.5t17.5 53.5t36 7h86q63 0 85 27.5t34 99.5z" />
    <glyph glyph-name="k" unicode="k" horiz-adv-x="1016" 
d="M436 668q463 432 476.5 445t39.5 13h140q26 0 26 -20q0 -15 -12 -27l-531 -487l253 -372q120 -176 122 -181t2 -10q0 -29 -28 -29h-119q-18 0 -31 6.5t-62 80.5l-298 448l-55 -316q-32 -180 -34 -189.5t-11.5 -19.5t-24.5 -10h-109q-33 0 -33 41l256 1458q3 17 18 29
t32 12h98q20 0 28 -9q5 -5 5 -32z" />
    <glyph glyph-name="l" unicode="l" horiz-adv-x="500" 
d="M469 1540h106q18 0 23.5 -7.5t5.5 -31.5l-256 -1460q-7 -41 -45 -41h-106q-29 0 -29 41l256 1460q7 39 45 39z" />
    <glyph glyph-name="m" unicode="m" horiz-adv-x="1632" 
d="M1004 1049q162 92 335 92q145 0 222 -77.5t77 -219.5q0 -30 -10 -88l-125 -715q-3 -17 -17.5 -29t-31.5 -12h-98q-33 0 -33 41l125 715q8 43 8 86q0 75 -36 108t-126 33q-132 0 -250 -59q4 -22 4 -57q0 -61 -8 -107l-125 -719q-3 -16 -16 -28.5t-29 -12.5h-108
q-17 0 -22 9.5t-5 31.5l125 719q14 78 14 110q0 113 -122 113q-104 0 -273 -78l-151 -864q-4 -16 -16.5 -28.5t-28.5 -12.5h-109q-17 0 -22 9t-5 32l183 1044q7 41 47 41h98q32 0 32 -27q0 -4 -7 -52q155 94 299 94q136 0 205 -92z" />
    <glyph glyph-name="n" unicode="n" horiz-adv-x="1141" 
d="M502 1042q168 99 329 99q149 0 228.5 -83.5t79.5 -232.5q0 -52 -26 -197l-65 -367q-39 -223 -42 -232t-16.5 -19t-28.5 -10h-99q-33 0 -33 41l83 471q39 220 42.5 253.5t3.5 61.5q0 79 -41.5 117.5t-148.5 38.5q-124 0 -289 -78l-151 -864q-3 -16 -18 -28.5t-31 -12.5
h-101q-31 0 -31 41l183 1044q7 41 53 41h86q40 0 40 -30q0 -5 -7 -54z" />
    <glyph glyph-name="o" unicode="o" horiz-adv-x="1116" 
d="M758 1141q179 0 279 -103.5t100 -281.5q0 -93 -48 -319t-183 -338.5t-351 -112.5q-176 0 -276.5 104.5t-100.5 282.5q0 91 48.5 317.5t182 338.5t349.5 112zM582 143q119 0 210.5 82.5t127.5 265.5t36 267q0 225 -225 225q-118 0 -209.5 -80t-128.5 -274.5t-37 -263.5
q0 -222 226 -222z" />
    <glyph glyph-name="p" unicode="p" horiz-adv-x="1108" 
d="M322 8l-43 -240q-24 -134 -27 -142.5t-15.5 -17.5t-27.5 -9h-105q-28 0 -28 30v9l248 1409q3 26 22.5 37.5t153.5 34t260 22.5q178 0 274 -99t96 -276q0 -103 -52 -337t-177 -338.5t-344 -104.5q-113 0 -235 22zM348 158q115 -21 236 -21q119 0 203 77.5t124.5 276.5
t40.5 285q0 112 -53 162.5t-166 50.5q-123 0 -244 -20z" />
    <glyph glyph-name="q" unicode="q" horiz-adv-x="1108" 
d="M791 8q-132 -22 -244 -22q-177 0 -274 97t-97 273q0 102 52 336.5t180 341.5t342 107q73 0 160 -11q77 -9 155 -25q59 -12 71.5 -17.5t16.5 -12.5v-28l-248 -1409q-7 -39 -45 -39h-104q-32 0 -32 30q0 4 67 379zM958 969q-115 20 -235 20q-118 0 -204 -82t-126.5 -287
t-40.5 -278q0 -108 52.5 -156.5t168.5 -48.5q122 0 244 21z" />
    <glyph glyph-name="r" unicode="r" horiz-adv-x="700" 
d="M477 899l-149 -858q-3 -17 -18 -29t-31 -12h-101q-31 0 -31 41l183 1044q3 17 16.5 29t30.5 12h96q32 0 32 -32q0 -4 -9 -56q130 103 303 103h4q38 0 38 -26q0 -4 -8.5 -54t-12.5 -58.5t-15.5 -14t-28.5 -5.5h-6q-165 0 -293 -84z" />
    <glyph glyph-name="s" unicode="s" horiz-adv-x="954" 
d="M251 844q0 95 51 161.5t148 101t225 34.5q156 0 231.5 -13.5t88.5 -18.5t13 -21q0 -10 -7 -53t-13 -53.5t-39 -10.5q-139 16 -301 16q-101 0 -158 -37t-57 -108q0 -64 111 -135q216 -144 263.5 -182t74 -91t26.5 -123q0 -157 -118 -241t-322 -84q-107 0 -206 11.5
t-124 21.5t-25 32q0 3 8 51t17 53t39 5q177 -23 318 -23q109 0 170 44.5t61 129.5q0 43 -31 76t-77 62l-195 129q-172 112 -172 266z" />
    <glyph glyph-name="t" unicode="t" horiz-adv-x="768" 
d="M648 1126h221q34 0 34 -30q0 -14 -9 -60.5t-20.5 -53.5t-30.5 -7h-221l-127 -719q-7 -37 -7 -59q0 -42 20.5 -54t74.5 -12h125q29 0 29 -20q0 -3 -7.5 -47.5t-16.5 -54t-54 -16.5t-107 -7q-246 0 -246 194q0 34 8 80l127 715q-185 21 -196.5 22.5t-21.5 9.5t-10 21
q0 3 7 41t18 47.5t31 9.5h199q33 202 35.5 211.5t16 19t76 19t66.5 9.5q16 0 19.5 -7t3.5 -28z" />
    <glyph glyph-name="u" unicode="u" horiz-adv-x="1141" 
d="M1061 1126h100q20 0 25.5 -9t5.5 -32l-182 -1044q-3 -17 -17 -29t-30 -12h-97q-31 0 -31 32q0 4 7 46q-175 -92 -340 -92q-139 0 -219 85t-80 238q0 58 12 123l114 651q4 21 16.5 32t33.5 11h98q34 0 34 -31q0 -4 -30 -175l-90 -508q-12 -68 -12 -117q0 -83 42 -117.5
t148 -34.5q126 0 291 76l152 866q7 41 49 41z" />
    <glyph glyph-name="v" unicode="v" horiz-adv-x="1085" 
d="M1174 1126q26 0 26 -24q0 -11 -6 -25l-426 -930q-74 -161 -227 -161t-170 161l-99 930q0 29 9.5 39t29.5 10h105q29 0 33 -39l71 -888q5 -64 39 -64q32 0 59 64l388 888q18 39 53 39h115z" />
    <glyph glyph-name="w" unicode="w" horiz-adv-x="1610" 
d="M1577 1126h115q35 0 35 -26q0 -10 -5 -23l-366 -950q-54 -141 -197 -141q-39 0 -68.5 17t-48 51.5t-22.5 85.5l-59 689q0 15 -9 15q-6 0 -12 -15l-301 -690q-36 -84 -81 -118.5t-112 -34.5q-142 0 -147 141l-31 952q0 17 14.5 32t32.5 15h107q28 0 29 -32l6 -928
q0 -25 12 -25q10 0 20 25l338 780q28 62 95 62h114q65 0 70 -62l63 -780q3 -25 13 -25q11 0 20 25l334 928q12 32 41 32z" />
    <glyph glyph-name="x" unicode="x" horiz-adv-x="1120" 
d="M702 719q331 378 344.5 392.5t34.5 14.5h125q23 0 23 -20q0 -6 -3 -13t-55 -66l-395 -449l274 -531q6 -9 6 -20q0 -27 -32 -27h-115q-20 0 -27 8t-79 147l-148 285q-368 -417 -377.5 -428.5t-32.5 -11.5h-118q-29 0 -29 19q0 14 10 25l473 540l-173 335
q-83 160 -85 165.5t-2 11.5q0 30 35 30h113q14 0 21.5 -7.5t70.5 -128.5z" />
    <glyph glyph-name="y" unicode="y" horiz-adv-x="1094" 
d="M605 160l414 936q12 30 45 30h121q28 0 28 -26q0 -9 -6 -23l-547 -1179q-85 -186 -176 -245t-252 -59q-50 0 -128.5 10.5t-78.5 36.5q0 2 9.5 51.5t17 55.5t39.5 6q129 -12 180 -12q90 0 142 34.5t127 223.5h-23q-68 0 -97 42t-38 118l-105 917q0 32 9.5 40.5t33.5 8.5
h107q25 0 29 -32l86 -889q4 -45 30 -45h33z" />
    <glyph glyph-name="z" unicode="z" horiz-adv-x="954" 
d="M846 1126q79 0 121.5 -38t42.5 -103q0 -72 -56 -129l-641 -666q-14 -14 -14 -24q0 -14 20 -14h523q34 0 34 -28q0 -5 -9 -54.5t-17 -59.5t-35 -10h-518q-85 0 -131.5 39.5t-46.5 103.5q0 72 47 121l653 678q12 12 12 23q0 10 -20 10h-504q-33 0 -33 32q0 2 7.5 52
t21 58.5t31.5 8.5h512z" />
    <glyph glyph-name="braceleft" unicode="{" horiz-adv-x="678" 
d="M881 1481l-11 -68q-3 -17 -17.5 -29t-31.5 -12h-92q-45 0 -74 -5.5t-46.5 -20.5t-27 -41t-16.5 -66l-65 -365q-10 -54 -25 -99t-38.5 -83.5t-57 -71.5t-80.5 -61q53 -46 75.5 -103.5t22.5 -123.5q0 -22 -1.5 -43.5t-6.5 -42.5l-63 -361q-3 -17 -5 -32t-2 -27
q0 -22 6.5 -36.5t21 -22.5t38.5 -11.5t59 -3.5h95q15 0 23.5 -9.5t8.5 -23.5v-8l-12 -67q-3 -17 -16.5 -29t-30.5 -12h-86q-150 0 -220.5 48.5t-70.5 147.5q0 20 1.5 41.5t6.5 44.5l64 361q5 26 7.5 48t2.5 42q0 54 -21 91.5t-67 74.5l21 119q40 25 68.5 50t47.5 54.5
t31 65.5t20 83l66 365q16 89 41 144.5t67 86t105.5 41.5t157.5 11h94q15 0 24 -10.5t9 -24.5v-6z" />
    <glyph glyph-name="bar" unicode="|" horiz-adv-x="510" 
d="M504 -358q0 -16 -11 -27.5t-26 -11.5h-107q-15 0 -26.5 11.5t-11.5 27.5v1841q0 15 11.5 27t26.5 12h107q15 0 26 -12t11 -27v-1841v0z" />
    <glyph glyph-name="braceright" unicode="}" horiz-adv-x="678" 
d="M725 502q-41 -26 -69 -51t-47 -55t-31 -66t-21 -84l-63 -361q-15 -85 -37.5 -140t-62.5 -86.5t-103 -43.5t-160 -12h-104q-16 0 -25.5 10.5t-9.5 24.5v4v2l12 67q3 17 17.5 29t31.5 12h94q45 0 74 5.5t46.5 20.5t27 40.5t16.5 66.5l64 361q9 54 24 98.5t39 83t57.5 70.5
t79.5 61q-54 51 -77 104.5t-23 116.5q0 22 2.5 45t7.5 49l66 365q6 34 6 59q0 43 -27.5 58.5t-97.5 15.5h-92q-16 0 -24.5 10.5t-8.5 24.5v6l10 68q4 17 18.5 29t31.5 12h102q74 0 125.5 -12t84 -36t47.5 -60.5t15 -86.5q0 -20 -1.5 -41.5t-6.5 -46.5l-65 -365
q-5 -26 -8 -48t-3 -42q0 -52 21 -89t67 -74z" />
    <glyph glyph-name="asciitilde" unicode="~" horiz-adv-x="1219" 
d="M1190 956q0 -128 -50.5 -195t-172.5 -67q-42 0 -82 16t-74 42l-149 118q-23 18 -38 30t-27 19.5t-22 11t-22 3.5q-29 0 -46 -8.5t-26 -24.5t-11.5 -38t-2.5 -50v-53q0 -17 -12 -29t-29 -12h-59q-17 0 -29 12t-12 29v53q0 133 59 199.5t168 66.5q42 0 82 -15.5t72 -41.5
l174 -139q18 -16 44 -28.5t42 -12.5q29 0 45.5 6.5t24.5 20t10 35t2 52.5v58q0 17 12 29t29 12h59q17 0 29 -12t12 -29v-58v0z" />
    <glyph glyph-name="brokenbar" unicode="&#xa6;" horiz-adv-x="510" 
d="M479 741q0 -15 -10.5 -28t-26.5 -13h-108q-16 0 -26.5 13t-10.5 28v711q0 16 10.5 27.5t26.5 11.5h108q16 0 26.5 -11.5t10.5 -27.5v-711zM479 -391q0 -16 -10.5 -28.5t-26.5 -12.5h-108q-16 0 -26.5 12.5t-10.5 28.5v710q0 16 10.5 27.5t26.5 11.5h108q16 0 26.5 -11.5
t10.5 -27.5v-710z" />
    <glyph glyph-name="section" unicode="&#xa7;" horiz-adv-x="1120" 
d="M1243 1470l-16 -88q-3 -15 -15.5 -24.5t-27.5 -9.5h-2q-90 3 -176.5 10.5t-176.5 7.5q-63 0 -122.5 -7.5t-106.5 -31.5t-75.5 -69t-28.5 -121q0 -26 9 -49.5t29 -46.5t52.5 -48.5t79.5 -56.5l198 -131q66 -44 111 -84.5t72 -80.5t39 -80t12 -83q0 -81 -29 -160.5
t-80 -142.5q35 -68 35 -143q0 -130 -48 -220t-129 -146.5t-187 -81.5t-222 -25q-108 0 -191 8.5t-149 19.5q-14 2 -22 11.5t-8 21.5v6l14 86q3 17 16.5 26t30.5 9h4q84 -6 163.5 -13t164.5 -7q72 0 137 13.5t114.5 46.5t79 88.5t29.5 139.5q0 29 -9 54t-30 50t-55 52t-84 61
l-205 138q-61 40 -102 80t-65.5 80t-35 79.5t-10.5 79.5q0 83 31 149.5t84 129.5q-19 35 -29 72.5t-10 80.5q0 124 47 205t125 127.5t178.5 65t206.5 18.5q43 0 95.5 -2.5t103 -6.5t92.5 -9t63 -9q13 -3 22 -11.5t9 -20.5v-7zM907 442q0 29 -9 54t-29 49.5t-52 50t-78 57.5
l-164 113q-30 22 -66.5 46.5t-64.5 49.5q-17 -34 -29 -69.5t-12 -73.5q0 -59 38.5 -105.5t107.5 -93.5l203 -135q21 -14 36.5 -25t29 -20.5t26.5 -20t28 -22.5q35 68 35 145z" />
    <glyph glyph-name="afii10023" unicode="&#xa8;" horiz-adv-x="1128" 
d="M1198 1870v-6l-30 -165q-4 -18 -18 -29t-30 -11h-80q-34 0 -34 33v6l30 164q3 17 18 30t29 13h80q14 0 24.5 -10.5t10.5 -24.5zM840 1870v-6l-31 -165q-3 -18 -17.5 -29t-29.5 -11h-80q-35 0 -35 33v6l30 164q4 17 18.5 30t29.5 13h80q14 0 24.5 -10.5t10.5 -24.5z
M1280 1493v-4q-19 -102 -23 -111.5t-22 -9.5h-395q-112 0 -170 -22t-83 -67.5t-45 -161.5l-42 -247h628q33 0 33 -34v-7l-11 -73q-3 -21 -18.5 -33t-31.5 -12h-629q-70 -404 -70 -428q0 -75 51.5 -102t172.5 -27h395q18 0 18 -19v-6q-19 -106 -23.5 -114.5t-13.5 -12.5
t-154 -10t-253 -6q-182 0 -279.5 75.5t-97.5 219.5q0 39 8 86l137 788q36 202 147.5 291.5t356.5 89.5q214 0 307 -8t100 -15.5t7 -19.5z" />
    <glyph glyph-name="afii10023" unicode="&#x401;" horiz-adv-x="1128" 
d="M1198 1870v-6l-30 -165q-4 -18 -18 -29t-30 -11h-80q-34 0 -34 33v6l30 164q3 17 18 30t29 13h80q14 0 24.5 -10.5t10.5 -24.5zM840 1870v-6l-31 -165q-3 -18 -17.5 -29t-29.5 -11h-80q-35 0 -35 33v6l30 164q4 17 18.5 30t29.5 13h80q14 0 24.5 -10.5t10.5 -24.5z
M1280 1493v-4q-19 -102 -23 -111.5t-22 -9.5h-395q-112 0 -170 -22t-83 -67.5t-45 -161.5l-42 -247h628q33 0 33 -34v-7l-11 -73q-3 -21 -18.5 -33t-31.5 -12h-629q-70 -404 -70 -428q0 -75 51.5 -102t172.5 -27h395q18 0 18 -19v-6q-19 -106 -23.5 -114.5t-13.5 -12.5
t-154 -10t-253 -6q-182 0 -279.5 75.5t-97.5 219.5q0 39 8 86l137 788q36 202 147.5 291.5t356.5 89.5q214 0 307 -8t100 -15.5t7 -19.5z" />
    <glyph glyph-name="copyright" unicode="&#xa9;" horiz-adv-x="1536" 
d="M1577 766q0 -92 -24 -176.5t-67.5 -158.5t-104.5 -134.5t-135.5 -104t-159.5 -67t-177 -23.5t-176.5 23.5t-158 67t-134 104t-104 134.5t-67 158.5t-23.5 176.5q0 138 52 259.5t142 213t211 144.5t258 53q92 0 177 -24t159.5 -68t135.5 -105.5t104.5 -136t67.5 -159.5
t24 -177zM1487 766q0 80 -20.5 154t-58 138.5t-90.5 117.5t-117 90.5t-138 58.5t-154 21q-120 0 -224.5 -46t-182.5 -124.5t-123 -184t-45 -225.5t45 -224.5t123 -182t182.5 -122t224.5 -44.5t225.5 44.5t183.5 122t123.5 182t45.5 224.5zM1118 375q0 -16 -10 -22.5
t-21 -8.5q-23 -5 -69 -9.5t-117 -4.5q-66 0 -123 20t-99.5 65t-66.5 116.5t-24 173.5v135q0 103 24 174.5t66.5 116.5t99.5 65.5t123 20.5q71 0 117 -6t69 -11q11 -2 21 -7.5t10 -21.5v-57q0 -15 -8.5 -19.5t-17.5 -4.5h-7q-32 3 -80 6.5t-104 3.5q-38 0 -71.5 -13t-59 -43
t-40.5 -80t-15 -124v-135q0 -75 15 -124.5t40.5 -79.5t59 -42.5t71.5 -12.5q53 0 102.5 4t81.5 7h5q9 0 18.5 -5t9.5 -22v-55z" />
    <glyph glyph-name="guillemotleft" unicode="&#xab;" horiz-adv-x="1257" 
d="M1321 977q0 -6 -4 -15.5t-12 -15.5l-431 -379l285 -379q3 -5 5.5 -10.5t2.5 -11.5q0 -9 -6 -16t-18 -7h-109q-12 0 -20 4t-19 17l-284 346q-10 11 -13.5 24t-3.5 27q0 20 7 37t18 27l407 346q16 12 27.5 16t24.5 4h125q18 0 18 -14zM788 977q0 -6 -4 -15.5t-12 -15.5
l-430 -379l285 -379q3 -5 5.5 -10.5t2.5 -11.5q0 -9 -6 -16t-19 -7h-108q-13 0 -20.5 4t-18.5 17l-285 346q-9 11 -12.5 24t-3.5 27q0 20 6.5 37t17.5 27l408 346q15 12 27 16t24 4h125q18 0 18 -14z" />
    <glyph glyph-name="logicalnot" unicode="&#xac;" horiz-adv-x="1219" 
d="M1198 506q0 -17 -12 -29t-29 -12h-65q-17 0 -29 12t-12 29v448h-682q-17 0 -29 8t-12 25v82q0 17 12 25t29 8h794q16 0 25.5 -10t9.5 -25v-561v0z" />
    <glyph glyph-name="registered" unicode="&#xae;" horiz-adv-x="1225" 
d="M1341 991q0 -114 -43.5 -214.5t-118.5 -174.5t-175.5 -117t-215.5 -43q-114 0 -214.5 43t-175 117t-117.5 174.5t-43 214.5t43 214.5t117.5 175.5t175 118t214.5 43q115 0 215.5 -43t175.5 -118t118.5 -175.5t43.5 -214.5zM1257 991q0 97 -37 182t-100.5 149t-149 101
t-182.5 37t-181.5 -37t-147.5 -101t-99 -149t-36 -182t36 -181.5t99 -147.5t147.5 -99.5t181.5 -36.5t182.5 36.5t149 99.5t100.5 147.5t37 181.5zM1047 678q0 -11 -5.5 -19t-19.5 -8h-57q-8 0 -15 5t-10 12l-166 262l-20 6h-86v-254q0 -11 -8.5 -21t-20.5 -10h-51
q-13 0 -20 10t-7 21v618q0 42 37 46q12 1 31.5 2.5t41.5 2l44 1t39 0.5q64 0 113.5 -10.5t84 -35t52.5 -64t18 -97.5v-8q0 -79 -36 -122.5t-101 -62.5l157 -256q2 -3 3.5 -8t1.5 -10zM920 1145q0 61 -38 85.5t-122 24.5h-66h-28v-229q8 0 21.5 -0.5t27.5 -0.5t26.5 -0.5
t18.5 -0.5q86 0 123 25.5t37 87.5v8z" />
    <glyph glyph-name="degree" unicode="&#xb0;" horiz-adv-x="700" 
d="M864 1245q0 -60 -23 -113t-62.5 -92.5t-92.5 -62.5t-113 -23t-113 23t-92.5 62.5t-63 92.5t-23.5 113t23.5 113t63 92.5t92.5 62.5t113 23t113 -23t92.5 -62.5t62.5 -92.5t23 -113zM754 1245q0 37 -14.5 69.5t-39 57t-57.5 39t-70 14.5t-69.5 -14.5t-57 -39t-39 -57
t-14.5 -69.5t14.5 -69.5t39 -57t57 -39t69.5 -14.5t70 14.5t57.5 39t39 57t14.5 69.5z" />
    <glyph glyph-name="plusminus" unicode="&#xb1;" horiz-adv-x="1219" 
d="M1176 760q0 -17 -12 -25t-29 -8h-353v-350q0 -17 -7.5 -29t-24.5 -12h-82q-17 0 -25 12t-8 29v350h-350q-17 0 -29 8t-12 25v82q0 17 12 24.5t29 7.5h350v353q0 17 8 29t25 12h82q17 0 24.5 -12t7.5 -29v-353h353q17 0 29 -7.5t12 -24.5v-82zM1176 18q0 -17 -12 -24.5
t-29 -7.5h-850q-17 0 -29 7.5t-12 24.5v68q0 17 12 25t29 8h850q17 0 29 -8t12 -25v-68z" />
    <glyph glyph-name="mu" unicode="&#xb5;" horiz-adv-x="1141" 
d="M1192 1085l-174 -995q-6 -34 -47 -47q-38 -13 -84 -23.5t-96.5 -18t-103.5 -11.5t-105 -4q-162 0 -254 59l-72 -405q-3 -17 -17.5 -29t-31.5 -12h-98q-16 0 -24.5 9t-8.5 23v9l254 1445q3 17 16.5 29t30.5 12h102q14 0 22.5 -9t8.5 -23v-9l-119 -673q-5 -23 -6.5 -44.5
t-1.5 -41.5q0 -97 55.5 -142t169.5 -45q62 0 127 7.5t115 21.5l162 917q3 16 17.5 28.5t31.5 12.5h100q14 0 22.5 -9t8.5 -23v-9z" />
    <glyph glyph-name="mu" unicode="&#x3bc;" horiz-adv-x="1141" 
d="M1192 1085l-174 -995q-6 -34 -47 -47q-38 -13 -84 -23.5t-96.5 -18t-103.5 -11.5t-105 -4q-162 0 -254 59l-72 -405q-3 -17 -17.5 -29t-31.5 -12h-98q-16 0 -24.5 9t-8.5 23v9l254 1445q3 17 16.5 29t30.5 12h102q14 0 22.5 -9t8.5 -23v-9l-119 -673q-5 -23 -6.5 -44.5
t-1.5 -41.5q0 -97 55.5 -142t169.5 -45q62 0 127 7.5t115 21.5l162 917q3 16 17.5 28.5t31.5 12.5h100q14 0 22.5 -9t8.5 -23v-9z" />
    <glyph glyph-name="paragraph" unicode="&#xb6;" horiz-adv-x="1274" 
d="M1405 1497q0 -3 -1 -7t-1 -7l-326 -1843q-3 -16 -14 -27.5t-27 -11.5h-47q-14 0 -21 9t-7 21v9l311 1771h-119l-311 -1771q-3 -16 -14.5 -27.5t-26.5 -11.5h-47q-14 0 -21.5 9t-7.5 21v9l158 899h-201q-95 0 -172.5 26t-133 74t-86 116t-30.5 152q0 22 1.5 43.5t6.5 44.5
l13 70q19 111 69.5 196t125 143t168.5 88t200 30h532q16 0 22.5 -7t6.5 -18z" />
    <glyph glyph-name="periodcentered" unicode="&#xb7;" horiz-adv-x="438" 
d="M465 897l-33 -190q-3 -17 -16.5 -29t-30.5 -12h-98q-14 0 -22.5 9t-8.5 23v9l33 190q3 17 16.5 28t30.5 11h98q14 0 22.5 -9t8.5 -22v-8z" />
    <glyph glyph-name="periodcentered" unicode="&#x2219;" horiz-adv-x="438" 
d="M465 897l-33 -190q-3 -17 -16.5 -29t-30.5 -12h-98q-14 0 -22.5 9t-8.5 23v9l33 190q3 17 16.5 28t30.5 11h98q14 0 22.5 -9t8.5 -22v-8z" />
    <glyph glyph-name="afii10071" unicode="&#xb8;" horiz-adv-x="1114" 
d="M1094 1524v-6l-31 -166q-3 -17 -17.5 -28t-29.5 -11h-80q-35 0 -35 33v6l30 164q4 17 18.5 30t29.5 13h80q14 0 24.5 -11t10.5 -24zM735 1524v-6l-30 -166q-4 -17 -18 -28t-30 -11h-79q-35 0 -35 33v6l30 164q3 17 18 30t30 13h79q14 0 24.5 -11t10.5 -24zM377 506
q-23 -86 -23 -150q0 -219 256 -219q57 0 120 4t122 11l113 14h12q27 0 27 -21v-8q-16 -86 -21.5 -96t-29.5 -18t-137 -22.5t-232 -14.5q-182 0 -293 98.5t-111 280.5q0 102 52.5 323.5t189.5 337t340 115.5q177 0 276 -103.5t99 -277.5q0 -59 -16 -143t-24 -97.5t-34 -13.5
h-686zM942 643q14 70 14 123q0 217 -221 217q-124 0 -214 -88.5t-122 -251.5h543z" />
    <glyph glyph-name="afii10071" unicode="&#x451;" horiz-adv-x="1114" 
d="M1094 1524v-6l-31 -166q-3 -17 -17.5 -28t-29.5 -11h-80q-35 0 -35 33v6l30 164q4 17 18.5 30t29.5 13h80q14 0 24.5 -11t10.5 -24zM735 1524v-6l-30 -166q-4 -17 -18 -28t-30 -11h-79q-35 0 -35 33v6l30 164q3 17 18 30t30 13h79q14 0 24.5 -11t10.5 -24zM377 506
q-23 -86 -23 -150q0 -219 256 -219q57 0 120 4t122 11l113 14h12q27 0 27 -21v-8q-16 -86 -21.5 -96t-29.5 -18t-137 -22.5t-232 -14.5q-182 0 -293 98.5t-111 280.5q0 102 52.5 323.5t189.5 337t340 115.5q177 0 276 -103.5t99 -277.5q0 -59 -16 -143t-24 -97.5t-34 -13.5
h-686zM942 643q14 70 14 123q0 217 -221 217q-124 0 -214 -88.5t-122 -251.5h543z" />
    <glyph glyph-name="guillemotright" unicode="&#xbb;" horiz-adv-x="1257" 
d="M1300 573q0 -20 -6.5 -37t-17.5 -26l-408 -346q-15 -13 -26.5 -17t-24.5 -4h-125q-9 0 -13.5 4.5t-4.5 10.5t4 15t12 15l430 379l-284 379q-9 11 -9 23q0 9 6.5 15.5t18.5 6.5h109q12 0 19.5 -4t18.5 -16l285 -346q9 -11 12.5 -24.5t3.5 -27.5zM768 573q0 -20 -7 -37
t-18 -26l-407 -346q-16 -13 -27.5 -17t-23.5 -4h-125q-10 0 -14.5 4.5t-4.5 10.5t4.5 15t12.5 15l430 379l-285 379q-3 5 -5.5 11t-2.5 12q0 9 6 15.5t18 6.5h109q12 0 20 -4t19 -16l285 -346q9 -11 12.5 -24.5t3.5 -27.5z" />
    <glyph glyph-name="afii10017" unicode="&#xc0;" horiz-adv-x="1296" 
d="M1243 39q0 -39 -35 -39h-123q-13 0 -20 9t-14 78l-45 415h-531l-150 -332q-68 -150 -77.5 -160t-28.5 -10h-125q-28 0 -28 27q0 11 4 20l614 1333q71 156 236 156q163 0 180 -154l143 -1335v-8zM995 664l-51 514q-16 161 -17 167t-5 13.5t-10.5 11.5t-16.5 4
q-30 0 -47 -37l-305 -673h452z" />
    <glyph glyph-name="afii10017" unicode="&#x410;" horiz-adv-x="1296" 
d="M1243 39q0 -39 -35 -39h-123q-13 0 -20 9t-14 78l-45 415h-531l-150 -332q-68 -150 -77.5 -160t-28.5 -10h-125q-28 0 -28 27q0 11 4 20l614 1333q71 156 236 156q163 0 180 -154l143 -1335v-8zM995 664l-51 514q-16 161 -17 167t-5 13.5t-10.5 11.5t-16.5 4
q-30 0 -47 -37l-305 -673h452z" />
    <glyph glyph-name="afii10018" unicode="&#xc1;" horiz-adv-x="1262" 
d="M1231 401q-37 -208 -195.5 -311.5t-476.5 -103.5q-133 0 -237.5 7.5t-127 19.5t-22.5 44q0 11 2 23l248 1403q8 39 45 39h782q34 0 34 -31q0 -3 -9 -60t-22 -66t-33 -9h-633l-84 -473q125 8 217 8q256 0 391 -91.5t135 -269.5q0 -47 -8 -94zM375 152q137 -9 213 -9
q215 0 317 58.5t129 159.5t27 161q0 110 -84 160.5t-285 50.5q-81 0 -217 -8z" />
    <glyph glyph-name="afii10018" unicode="&#x411;" horiz-adv-x="1262" 
d="M1231 401q-37 -208 -195.5 -311.5t-476.5 -103.5q-133 0 -237.5 7.5t-127 19.5t-22.5 44q0 11 2 23l248 1403q8 39 45 39h782q34 0 34 -31q0 -3 -9 -60t-22 -66t-33 -9h-633l-84 -473q125 8 217 8q256 0 391 -91.5t135 -269.5q0 -47 -8 -94zM375 152q137 -9 213 -9
q215 0 317 58.5t129 159.5t27 161q0 110 -84 160.5t-285 50.5q-81 0 -217 -8z" />
    <glyph glyph-name="afii10019" unicode="&#xc2;" horiz-adv-x="1262" 
d="M1354 1176q0 -93 -58.5 -210.5t-224.5 -179.5q82 -34 127 -106t45 -164q0 -122 -64 -258.5t-211.5 -204t-408.5 -67.5q-129 0 -232.5 7.5t-129 19t-25.5 44.5q0 11 2 23l240 1364q5 32 23.5 50.5t48.5 24t131 11.5t204 6q257 0 395 -82.5t138 -241.5v-36zM1167 1171v23
q0 96 -82.5 140t-289.5 44q-33 0 -205 -6l-90 -508h315q197 0 274.5 96t77.5 211zM375 152q134 -9 211 -9q286 0 378.5 104.5t92.5 266.5q0 201 -266 201h-316z" />
    <glyph glyph-name="afii10019" unicode="&#x412;" horiz-adv-x="1262" 
d="M1354 1176q0 -93 -58.5 -210.5t-224.5 -179.5q82 -34 127 -106t45 -164q0 -122 -64 -258.5t-211.5 -204t-408.5 -67.5q-129 0 -232.5 7.5t-129 19t-25.5 44.5q0 11 2 23l240 1364q5 32 23.5 50.5t48.5 24t131 11.5t204 6q257 0 395 -82.5t138 -241.5v-36zM1167 1171v23
q0 96 -82.5 140t-289.5 44q-33 0 -205 -6l-90 -508h315q197 0 274.5 96t77.5 211zM375 152q134 -9 211 -9q286 0 378.5 104.5t92.5 266.5q0 201 -266 201h-316z" />
    <glyph glyph-name="afii10020" unicode="&#xc3;" horiz-adv-x="1098" 
d="M549 1155l-195 -1114q-7 -41 -47 -41h-104q-22 0 -28.5 9t-6.5 32l194 1114q36 202 145.5 291.5t358.5 89.5q221 0 304.5 -6.5t97 -13t13.5 -17.5q0 -3 -10.5 -60t-15.5 -64t-20 -7h-395q-134 0 -200 -34t-91 -179z" />
    <glyph glyph-name="afii10020" unicode="&#x413;" horiz-adv-x="1098" 
d="M549 1155l-195 -1114q-7 -41 -47 -41h-104q-22 0 -28.5 9t-6.5 32l194 1114q36 202 145.5 291.5t358.5 89.5q221 0 304.5 -6.5t97 -13t13.5 -17.5q0 -3 -10.5 -60t-15.5 -64t-20 -7h-395q-134 0 -200 -34t-91 -179z" />
    <glyph glyph-name="afii10021" unicode="&#xc4;" horiz-adv-x="1403" 
d="M118 166h63l559 1214q72 156 238 156q164 0 180 -154l129 -1216h57q31 0 31 -26q0 -5 -16 -95l-30 -173q-14 -82 -17.5 -92t-13.5 -18t-27 -8h-113q-30 0 -30 29q0 6 38 217h-927q-37 -205 -39.5 -214.5t-12.5 -20.5t-30 -11h-113q-30 0 -30 31q0 4 16 96l30 171
q14 81 17.5 90t14 16.5t26.5 7.5zM908 1337l-526 -1171h721l-115 1171q-3 37 -33 37t-47 -37z" />
    <glyph glyph-name="afii10021" unicode="&#x414;" horiz-adv-x="1403" 
d="M118 166h63l559 1214q72 156 238 156q164 0 180 -154l129 -1216h57q31 0 31 -26q0 -5 -16 -95l-30 -173q-14 -82 -17.5 -92t-13.5 -18t-27 -8h-113q-30 0 -30 29q0 6 38 217h-927q-37 -205 -39.5 -214.5t-12.5 -20.5t-30 -11h-113q-30 0 -30 31q0 4 16 96l30 171
q14 81 17.5 90t14 16.5t26.5 7.5zM908 1337l-526 -1171h721l-115 1171q-3 37 -33 37t-47 -37z" />
    <glyph glyph-name="afii10022" unicode="&#xc5;" horiz-adv-x="1128" 
d="M840 1368q-112 0 -170 -22t-83 -67.5t-45 -161.5l-42 -247h628q34 0 34 -31q0 -5 -8 -54t-17.5 -61.5t-36.5 -12.5h-629q-70 -404 -70 -428q0 -75 51.5 -102t172.5 -27h389q25 0 25 -16l-16 -91q-6 -36 -13.5 -42t-146.5 -12.5t-269 -6.5q-182 0 -279.5 75.5t-97.5 219.5
q0 39 8 86l137 788q36 202 147.5 291.5t356.5 89.5q216 0 306.5 -8t99.5 -12.5t9 -15.5q0 -5 -11 -62.5t-16.5 -63.5t-18.5 -6h-395z" />
    <glyph glyph-name="afii10022" unicode="&#x415;" horiz-adv-x="1128" 
d="M840 1368q-112 0 -170 -22t-83 -67.5t-45 -161.5l-42 -247h628q34 0 34 -31q0 -5 -8 -54t-17.5 -61.5t-36.5 -12.5h-629q-70 -404 -70 -428q0 -75 51.5 -102t172.5 -27h389q25 0 25 -16l-16 -91q-6 -36 -13.5 -42t-146.5 -12.5t-269 -6.5q-182 0 -279.5 75.5t-97.5 219.5
q0 39 8 86l137 788q36 202 147.5 291.5t356.5 89.5q216 0 306.5 -8t99.5 -12.5t9 -15.5q0 -5 -11 -62.5t-16.5 -63.5t-18.5 -6h-395z" />
    <glyph glyph-name="afii10024" unicode="&#xc6;" horiz-adv-x="1980" 
d="M582 1503l469 -680l74 417q43 243 45 252.5t12 19.5t31 10h109q33 0 33 -31q0 -4 -28 -167l-85 -484l688 663q21 19 45 19h160q26 0 26 -21q0 -13 -10 -22l-758 -697l490 -749q4 -8 4 -13q0 -20 -23 -20h-147q-28 0 -41 20l-455 709l-77 -439q-44 -251 -46 -261.5
t-11 -19.5t-32 -9h-112q-30 0 -30 32q0 4 30 176l90 511l-700 -699q-21 -20 -48 -20h-159q-28 0 -28 26q0 14 11 25l756 746l-483 682q-9 11 -9 21q0 22 31 22h142q24 0 36 -19z" />
    <glyph glyph-name="afii10024" unicode="&#x416;" horiz-adv-x="1980" 
d="M582 1503l469 -680l74 417q43 243 45 252.5t12 19.5t31 10h109q33 0 33 -31q0 -4 -28 -167l-85 -484l688 663q21 19 45 19h160q26 0 26 -21q0 -13 -10 -22l-758 -697l490 -749q4 -8 4 -13q0 -20 -23 -20h-147q-28 0 -41 20l-455 709l-77 -439q-44 -251 -46 -261.5
t-11 -19.5t-32 -9h-112q-30 0 -30 32q0 4 30 176l90 511l-700 -699q-21 -20 -48 -20h-159q-28 0 -28 26q0 14 11 25l756 746l-483 682q-9 11 -9 21q0 22 31 22h142q24 0 36 -19z" />
    <glyph glyph-name="afii10025" unicode="&#xc7;" 
d="M1276 1227q0 -141 -69.5 -260.5t-194.5 -178.5q139 -76 139 -258q0 -267 -153 -405.5t-443 -138.5q-122 0 -233.5 19.5t-124.5 26.5t-13 24q0 7 8 53.5t17 53.5t35 7q211 -29 338 -29q381 0 381 383q0 91 -50.5 142t-148.5 51h-373q-33 0 -33 28q0 5 8 51t16.5 57
t33.5 11h372q137 0 216 94t79 242q0 104 -60.5 142t-215.5 38q-66 0 -163 -10l-193 -20h-7q-29 0 -29 25q0 4 8 50t16 54.5t40 16.5t139 24t209 16q219 0 334 -79t115 -230z" />
    <glyph glyph-name="afii10025" unicode="&#x417;" 
d="M1276 1227q0 -141 -69.5 -260.5t-194.5 -178.5q139 -76 139 -258q0 -267 -153 -405.5t-443 -138.5q-122 0 -233.5 19.5t-124.5 26.5t-13 24q0 7 8 53.5t17 53.5t35 7q211 -29 338 -29q381 0 381 383q0 91 -50.5 142t-148.5 51h-373q-33 0 -33 28q0 5 8 51t16.5 57
t33.5 11h372q137 0 216 94t79 242q0 104 -60.5 142t-215.5 38q-66 0 -163 -10l-193 -20h-7q-29 0 -29 25q0 4 8 50t16 54.5t40 16.5t139 24t209 16q219 0 334 -79t115 -230z" />
    <glyph glyph-name="afii10026" unicode="&#xc8;" horiz-adv-x="1393" 
d="M174 59l250 1424q7 39 45 39h108q18 0 23.5 -9t5.5 -30l-211 -1198q0 -3 2 -3t4 3l840 1196q19 27 37 34t55 7h113q26 0 37.5 -13t11.5 -45l-254 -1439q-4 -25 -41 -25h-106q-31 0 -31 39l211 1196q0 11 -8 0l-840 -1194q-29 -41 -76 -41h-127q-25 0 -39 17.5t-10 41.5z
" />
    <glyph glyph-name="afii10026" unicode="&#x418;" horiz-adv-x="1393" 
d="M174 59l250 1424q7 39 45 39h108q18 0 23.5 -9t5.5 -30l-211 -1198q0 -3 2 -3t4 3l840 1196q19 27 37 34t55 7h113q26 0 37.5 -13t11.5 -45l-254 -1439q-4 -25 -41 -25h-106q-31 0 -31 39l211 1196q0 11 -8 0l-840 -1194q-29 -41 -76 -41h-127q-25 0 -39 17.5t-10 41.5z
" />
    <glyph glyph-name="afii10027" unicode="&#xc9;" horiz-adv-x="1393" 
d="M1347 1946q19 0 19 -18q0 -29 -39 -114t-124.5 -138.5t-205.5 -53.5q-136 0 -218.5 76t-82.5 213q0 35 37 35h68q15 0 19.5 -7.5t4.5 -25.5q0 -164 176 -164q88 0 150 43t84 121q9 33 37 33h75zM174 59l250 1424q7 39 45 39h108q18 0 23.5 -9t5.5 -30l-211 -1198
q0 -3 2 -3t4 3l840 1196q19 27 37 34t55 7h113q26 0 37.5 -13t11.5 -45l-254 -1439q-4 -25 -41 -25h-106q-31 0 -31 39l211 1196q0 11 -8 0l-840 -1194q-29 -41 -76 -41h-127q-25 0 -39 17.5t-10 41.5z" />
    <glyph glyph-name="afii10027" unicode="&#x419;" horiz-adv-x="1393" 
d="M1347 1946q19 0 19 -18q0 -29 -39 -114t-124.5 -138.5t-205.5 -53.5q-136 0 -218.5 76t-82.5 213q0 35 37 35h68q15 0 19.5 -7.5t4.5 -25.5q0 -164 176 -164q88 0 150 43t84 121q9 33 37 33h75zM174 59l250 1424q7 39 45 39h108q18 0 23.5 -9t5.5 -30l-211 -1198
q0 -3 2 -3t4 3l840 1196q19 27 37 34t55 7h113q26 0 37.5 -13t11.5 -45l-254 -1439q-4 -25 -41 -25h-106q-31 0 -31 39l211 1196q0 11 -8 0l-840 -1194q-29 -41 -76 -41h-127q-25 0 -39 17.5t-10 41.5z" />
    <glyph glyph-name="afii10028" unicode="&#xca;" horiz-adv-x="1243" 
d="M496 840l688 663q21 19 45 19h160q26 0 26 -21q0 -13 -10 -22l-758 -697l490 -749q4 -8 4 -13q0 -20 -23 -20h-147q-28 0 -41 20l-455 709l-77 -439q-44 -251 -46 -261.5t-11.5 -19.5t-31.5 -9h-112q-29 0 -29 41l254 1442q8 39 45 39h108q34 0 34 -31q0 -4 -29 -167z
" />
    <glyph glyph-name="afii10028" unicode="&#x41a;" horiz-adv-x="1243" 
d="M496 840l688 663q21 19 45 19h160q26 0 26 -21q0 -13 -10 -22l-758 -697l490 -749q4 -8 4 -13q0 -20 -23 -20h-147q-28 0 -41 20l-455 709l-77 -439q-44 -251 -46 -261.5t-11.5 -19.5t-31.5 -9h-112q-29 0 -29 41l254 1442q8 39 45 39h108q34 0 34 -31q0 -4 -29 -167z
" />
    <glyph glyph-name="afii10029" unicode="&#xcb;" horiz-adv-x="1296" 
d="M1057 31l-129 1306q-4 37 -33 37q-31 0 -47 -37l-586 -1306q-11 -31 -43 -31h-125q-28 0 -28 27q0 11 4 20l614 1333q71 156 236 156q163 0 180 -154l143 -1335v-8q0 -39 -35 -39h-123q-25 0 -28 31z" />
    <glyph glyph-name="afii10029" unicode="&#x41b;" horiz-adv-x="1296" 
d="M1057 31l-129 1306q-4 37 -33 37q-31 0 -47 -37l-586 -1306q-11 -31 -43 -31h-125q-28 0 -28 27q0 11 4 20l614 1333q71 156 236 156q163 0 180 -154l143 -1335v-8q0 -39 -35 -39h-123q-25 0 -28 31z" />
    <glyph glyph-name="afii10030" unicode="&#xcc;" horiz-adv-x="1559" 
d="M1470 1522h140q19 0 31.5 -8t15 -16.5t2.5 -35.5l-250 -1421q-7 -41 -49 -41h-100q-33 0 -33 41l211 1204q0 12 -2 12t-6 -6l-396 -600q-38 -59 -102 -59h-94q-35 0 -53.5 12.5t-28.5 46.5l-123 408q-59 196 -61 199.5t-5 3.5t-6 -17l-211 -1204q-7 -41 -49 -41h-100
q-33 0 -33 41l250 1421q11 60 69 60h127q28 0 40.5 -6t19.5 -29l215 -703q7 -22 20 -22q14 0 29 22l461 703q21 35 71 35z" />
    <glyph glyph-name="afii10030" unicode="&#x41c;" horiz-adv-x="1559" 
d="M1470 1522h140q19 0 31.5 -8t15 -16.5t2.5 -35.5l-250 -1421q-7 -41 -49 -41h-100q-33 0 -33 41l211 1204q0 12 -2 12t-6 -6l-396 -600q-38 -59 -102 -59h-94q-35 0 -53.5 12.5t-28.5 46.5l-123 408q-59 196 -61 199.5t-5 3.5t-6 -17l-211 -1204q-7 -41 -49 -41h-100
q-33 0 -33 41l250 1421q11 60 69 60h127q28 0 40.5 -6t19.5 -29l215 -703q7 -22 20 -22q14 0 29 22l461 703q21 35 71 35z" />
    <glyph glyph-name="afii10031" unicode="&#xcd;" horiz-adv-x="1393" 
d="M1356 1522h104q19 0 26 -9t7 -32l-252 -1440q-3 -17 -17.5 -29t-31.5 -12h-105q-33 0 -33 32q0 4 30 176l90 513h-701l-75 -432q-44 -250 -46 -260t-12.5 -19.5t-34.5 -9.5h-104q-33 0 -33 41l252 1440q7 41 49 41h104q34 0 34 -31q0 -5 -26 -156l-79 -448h700l67 382
q38 215 40.5 225t12.5 19t34 9z" />
    <glyph glyph-name="afii10031" unicode="&#x41d;" horiz-adv-x="1393" 
d="M1356 1522h104q19 0 26 -9t7 -32l-252 -1440q-3 -17 -17.5 -29t-31.5 -12h-105q-33 0 -33 32q0 4 30 176l90 513h-701l-75 -432q-44 -250 -46 -260t-12.5 -19.5t-34.5 -9.5h-104q-33 0 -33 41l252 1440q7 41 49 41h104q34 0 34 -31q0 -5 -26 -156l-79 -448h700l67 382
q38 215 40.5 225t12.5 19t34 9z" />
    <glyph glyph-name="afii10032" unicode="&#xce;" horiz-adv-x="1354" 
d="M948 1536q213 0 335 -124t122 -347q0 -121 -68.5 -457t-236.5 -479t-424 -143q-214 0 -336.5 123t-122.5 348q0 130 71 468t240 474.5t420 136.5zM705 154q88 0 162 30.5t133 93.5t96.5 153.5t73 291t41.5 238t6 102.5q0 155 -72.5 230t-224.5 75q-113 0 -202 -48.5
t-152 -150t-93 -256.5q-65 -330 -65 -440q0 -169 75.5 -244t221.5 -75z" />
    <glyph glyph-name="afii10032" unicode="&#x41e;" horiz-adv-x="1354" 
d="M948 1536q213 0 335 -124t122 -347q0 -121 -68.5 -457t-236.5 -479t-424 -143q-214 0 -336.5 123t-122.5 348q0 130 71 468t240 474.5t420 136.5zM705 154q88 0 162 30.5t133 93.5t96.5 153.5t73 291t41.5 238t6 102.5q0 155 -72.5 230t-224.5 75q-113 0 -202 -48.5
t-152 -150t-93 -256.5q-65 -330 -65 -440q0 -169 75.5 -244t221.5 -75z" />
    <glyph glyph-name="afii10033" unicode="&#xcf;" horiz-adv-x="1393" 
d="M1053 41l215 1225q4 32 4 41q0 28 -19 37.5t-61 9.5h-516q-61 0 -80.5 -18.5t-28.5 -69.5l-215 -1225q-3 -17 -16.5 -29t-30.5 -12h-104q-35 0 -35 41l215 1225q21 121 85 188.5t228 67.5h516q248 0 248 -205q0 -31 -8 -78l-211 -1198q-3 -17 -16.5 -29t-30.5 -12h-105
q-34 0 -34 41z" />
    <glyph glyph-name="afii10033" unicode="&#x41f;" horiz-adv-x="1393" 
d="M1053 41l215 1225q4 32 4 41q0 28 -19 37.5t-61 9.5h-516q-61 0 -80.5 -18.5t-28.5 -69.5l-215 -1225q-3 -17 -16.5 -29t-30.5 -12h-104q-35 0 -35 41l215 1225q21 121 85 188.5t228 67.5h516q248 0 248 -205q0 -31 -8 -78l-211 -1198q-3 -17 -16.5 -29t-30.5 -12h-105
q-34 0 -34 41z" />
    <glyph glyph-name="afii10034" unicode="&#xd0;" horiz-adv-x="1214" 
d="M453 616l-64 -364q-37 -212 -39 -222t-12 -20t-31 -10h-110q-17 0 -23 9t-6 32l250 1427q3 22 23 39t157.5 23t220.5 6q244 0 373 -92t129 -268q0 -133 -47.5 -253.5t-137.5 -190t-209.5 -98t-271.5 -28.5q-74 0 -202 10zM479 770q188 -8 205 -8q172 0 273.5 53
t139.5 149.5t38 198.5q0 118 -81.5 166.5t-260.5 48.5q-102 0 -207 -8z" />
    <glyph glyph-name="afii10034" unicode="&#x420;" horiz-adv-x="1214" 
d="M453 616l-64 -364q-37 -212 -39 -222t-12 -20t-31 -10h-110q-17 0 -23 9t-6 32l250 1427q3 22 23 39t157.5 23t220.5 6q244 0 373 -92t129 -268q0 -133 -47.5 -253.5t-137.5 -190t-209.5 -98t-271.5 -28.5q-74 0 -202 10zM479 770q188 -8 205 -8q172 0 273.5 53
t139.5 149.5t38 198.5q0 118 -81.5 166.5t-260.5 48.5q-102 0 -207 -8z" />
    <glyph glyph-name="afii10035" unicode="&#xd1;" horiz-adv-x="1116" 
d="M217 455q0 84 26 230q54 300 77 373q43 139 110.5 233.5t149.5 148t170.5 75t183.5 21.5q104 0 223.5 -16t131.5 -21t12 -16q0 -3 -10 -58.5t-12 -62.5t-8 -9.5t-24 -2.5q-215 18 -340 18q-91 0 -169.5 -34t-140.5 -110.5t-99 -198.5q-17 -56 -71 -354q-24 -132 -24 -204
q0 -313 289 -313l351 16q27 0 27 -20q0 -6 -9 -58t-14.5 -61.5t-33.5 -17t-118.5 -17.5t-232.5 -10q-194 0 -319.5 122t-125.5 347z" />
    <glyph glyph-name="afii10035" unicode="&#x421;" horiz-adv-x="1116" 
d="M217 455q0 84 26 230q54 300 77 373q43 139 110.5 233.5t149.5 148t170.5 75t183.5 21.5q104 0 223.5 -16t131.5 -21t12 -16q0 -3 -10 -58.5t-12 -62.5t-8 -9.5t-24 -2.5q-215 18 -340 18q-91 0 -169.5 -34t-140.5 -110.5t-99 -198.5q-17 -56 -71 -354q-24 -132 -24 -204
q0 -313 289 -313l351 16q27 0 27 -20q0 -6 -9 -58t-14.5 -61.5t-33.5 -17t-118.5 -17.5t-232.5 -10q-194 0 -319.5 122t-125.5 347z" />
    <glyph glyph-name="afii10036" unicode="&#xd2;" horiz-adv-x="1208" 
d="M938 1362l-231 -1321q-8 -41 -45 -41h-113q-29 0 -29 41l232 1321h-400q-35 0 -35 25q0 4 10 60.5t22.5 65.5t31.5 9h985q34 0 34 -26q0 -4 -10 -60.5t-19.5 -65t-33.5 -8.5h-399z" />
    <glyph glyph-name="afii10036" unicode="&#x422;" horiz-adv-x="1208" 
d="M938 1362l-231 -1321q-8 -41 -45 -41h-113q-29 0 -29 41l232 1321h-400q-35 0 -35 25q0 4 10 60.5t22.5 65.5t31.5 9h985q34 0 34 -26q0 -4 -10 -60.5t-19.5 -65t-33.5 -8.5h-399z" />
    <glyph glyph-name="afii10037" unicode="&#xd3;" horiz-adv-x="1204" 
d="M1398 1470l-662 -1173q-116 -209 -212 -260t-232 -51q-173 0 -173 39q0 2 9.5 55.5t14.5 61.5t15 12t29 4q64 -6 127 -6q80 0 119.5 25t96.5 125l122 216h-10q-52 0 -76.5 22t-40.5 103l-164 827q0 26 2 33t12 13t25 6h109q33 0 39 -29l153 -768q5 -25 11.5 -32t23.5 -7
h13l454 807q17 29 41 29h131q31 0 31 -25q0 -11 -8 -27z" />
    <glyph glyph-name="afii10037" unicode="&#x423;" horiz-adv-x="1204" 
d="M1398 1470l-662 -1173q-116 -209 -212 -260t-232 -51q-173 0 -173 39q0 2 9.5 55.5t14.5 61.5t15 12t29 4q64 -6 127 -6q80 0 119.5 25t96.5 125l122 216h-10q-52 0 -76.5 22t-40.5 103l-164 827q0 26 2 33t12 13t25 6h109q33 0 39 -29l153 -768q5 -25 11.5 -32t23.5 -7
h13l454 807q17 29 41 29h131q31 0 31 -25q0 -11 -8 -27z" />
    <glyph glyph-name="afii10038" unicode="&#xd4;" horiz-adv-x="1616" 
d="M944 1303q33 193 35 203t12.5 20t30.5 10h111q29 0 29 -30q0 -4 -34 -203h78q236 0 367 -100t131 -283q0 -95 -47 -262.5t-204 -267t-425 -99.5q-53 0 -78 2q-45 -252 -47 -261.5t-11.5 -20.5t-29.5 -11h-110q-32 0 -32 32q0 4 46 261q-27 -2 -78 -2q-233 0 -363 103
t-130 292q0 107 45.5 267.5t200 255t425.5 94.5h78zM1178 1145h-78l-123 -696q28 -3 78 -3q191 0 294 69.5t136 197t33 196.5q0 236 -340 236zM915 1145h-77q-187 0 -292 -67t-137 -194t-32 -202q0 -122 82.5 -179t255.5 -57q47 0 78 3z" />
    <glyph glyph-name="afii10038" unicode="&#x424;" horiz-adv-x="1616" 
d="M944 1303q33 193 35 203t12.5 20t30.5 10h111q29 0 29 -30q0 -4 -34 -203h78q236 0 367 -100t131 -283q0 -95 -47 -262.5t-204 -267t-425 -99.5q-53 0 -78 2q-45 -252 -47 -261.5t-11.5 -20.5t-29.5 -11h-110q-32 0 -32 32q0 4 46 261q-27 -2 -78 -2q-233 0 -363 103
t-130 292q0 107 45.5 267.5t200 255t425.5 94.5h78zM1178 1145h-78l-123 -696q28 -3 78 -3q191 0 294 69.5t136 197t33 196.5q0 236 -340 236zM915 1145h-77q-187 0 -292 -67t-137 -194t-32 -202q0 -122 82.5 -179t255.5 -57q47 0 78 3z" />
    <glyph glyph-name="afii10039" unicode="&#xd5;" horiz-adv-x="1323" 
d="M819 920l475 581q16 21 43 21h107q29 0 29 -25q0 -12 -11 -24l-571 -707l336 -715q4 -12 4 -16q0 -35 -39 -35h-102q-22 0 -28 13l-286 608l-477 -590q-25 -31 -49 -31h-123q-29 0 -29 25q0 14 11 26l593 727l-325 695q-4 8 -4 14q0 35 37 35h104q17 0 22.5 -5.5
t92.5 -191.5z" />
    <glyph glyph-name="afii10039" unicode="&#x425;" horiz-adv-x="1323" 
d="M819 920l475 581q16 21 43 21h107q29 0 29 -25q0 -12 -11 -24l-571 -707l336 -715q4 -12 4 -16q0 -35 -39 -35h-102q-22 0 -28 13l-286 608l-477 -590q-25 -31 -49 -31h-123q-29 0 -29 25q0 14 11 26l593 727l-325 695q-4 8 -4 14q0 35 37 35h104q17 0 22.5 -5.5
t92.5 -191.5z" />
    <glyph glyph-name="afii10040" unicode="&#xd6;" horiz-adv-x="1407" 
d="M1186 0h-725q-122 0 -188 52.5t-66 155.5q0 31 6 66l213 1207q3 16 17.5 28.5t31.5 12.5h104q33 0 33 -41l-217 -1227q-4 -26 -4 -39q0 -29 19 -39t63 -10h516q60 0 78.5 18t28.5 70l217 1227q3 16 17.5 28.5t31.5 12.5h104q33 0 33 -41l-215 -1225q-7 -40 -27 -90h107
q29 0 29 -31q0 -3 -16 -99l-30 -171q-13 -76 -18 -85.5t-15.5 -17.5t-23.5 -8h-113q-28 0 -28 41z" />
    <glyph glyph-name="afii10040" unicode="&#x426;" horiz-adv-x="1407" 
d="M1186 0h-725q-122 0 -188 52.5t-66 155.5q0 31 6 66l213 1207q3 16 17.5 28.5t31.5 12.5h104q33 0 33 -41l-217 -1227q-4 -26 -4 -39q0 -29 19 -39t63 -10h516q60 0 78.5 18t28.5 70l217 1227q3 16 17.5 28.5t31.5 12.5h104q33 0 33 -41l-215 -1225q-7 -40 -27 -90h107
q29 0 29 -31q0 -3 -16 -99l-30 -171q-13 -76 -18 -85.5t-15.5 -17.5t-23.5 -8h-113q-28 0 -28 41z" />
    <glyph glyph-name="afii10041" unicode="&#xd7;" horiz-adv-x="1305" 
d="M1151 41q-7 -41 -47 -41h-105q-35 0 -35 33q0 3 26 154l79 446q-185 -39 -371 -39q-185 0 -286 87.5t-101 254.5q0 48 16 138l45 251q28 160 31 169.5t14.5 18.5t31.5 9h104q33 0 33 -34q0 -3 -80 -460q-8 -44 -8 -90q0 -99 62.5 -136.5t209.5 -37.5q48 0 163.5 11
t164.5 22l76 429q45 255 47 264.5t12 20.5t31 11h112q18 0 23.5 -9t5.5 -32z" />
    <glyph glyph-name="afii10041" unicode="&#x427;" horiz-adv-x="1305" 
d="M1151 41q-7 -41 -47 -41h-105q-35 0 -35 33q0 3 26 154l79 446q-185 -39 -371 -39q-185 0 -286 87.5t-101 254.5q0 48 16 138l45 251q28 160 31 169.5t14.5 18.5t31.5 9h104q33 0 33 -34q0 -3 -80 -460q-8 -44 -8 -90q0 -99 62.5 -136.5t209.5 -37.5q48 0 163.5 11
t164.5 22l76 429q45 255 47 264.5t12 20.5t31 11h112q18 0 23.5 -9t5.5 -32z" />
    <glyph glyph-name="afii10042" unicode="&#xd8;" horiz-adv-x="1911" 
d="M1616 254l217 1227q3 16 17.5 28.5t31.5 12.5h104q33 0 33 -41l-217 -1227q-19 -111 -66 -166.5t-107.5 -71.5t-147.5 -16h-1018q-140 0 -196 53.5t-56 153.5q0 39 8 84l209 1190q3 16 17.5 28.5t31.5 12.5h104q33 0 33 -41l-217 -1227q-4 -26 -4 -39q0 -29 19 -39
t63 -10h424l231 1315q3 16 18 28.5t31 12.5h105q33 0 33 -41l-232 -1315h424q60 0 79 18t28 70z" />
    <glyph glyph-name="afii10042" unicode="&#x428;" horiz-adv-x="1911" 
d="M1616 254l217 1227q3 16 17.5 28.5t31.5 12.5h104q33 0 33 -41l-217 -1227q-19 -111 -66 -166.5t-107.5 -71.5t-147.5 -16h-1018q-140 0 -196 53.5t-56 153.5q0 39 8 84l209 1190q3 16 17.5 28.5t31.5 12.5h104q33 0 33 -41l-217 -1227q-4 -26 -4 -39q0 -29 19 -39
t63 -10h424l231 1315q3 16 18 28.5t31 12.5h105q33 0 33 -41l-232 -1315h424q60 0 79 18t28 70z" />
    <glyph glyph-name="afii10043" unicode="&#xd9;" horiz-adv-x="1935" 
d="M1084 166h424q60 0 79 18t28 70l217 1227q7 41 49 41h104q33 0 33 -41l-217 -1227q-11 -56 -25 -88h107q30 0 30 -30q0 -4 -17 -99l-30 -171q-13 -77 -18 -86.5t-15.5 -17.5t-23.5 -8h-112q-30 0 -30 33q0 4 38 213h-1239q-257 0 -257 211q0 35 7 76l211 1194q7 41 49 41
h104q33 0 33 -41l-217 -1227q-4 -26 -4 -39q0 -29 19 -39t63 -10h424l231 1315q8 41 49 41h105q33 0 33 -41z" />
    <glyph glyph-name="afii10043" unicode="&#x429;" horiz-adv-x="1935" 
d="M1084 166h424q60 0 79 18t28 70l217 1227q7 41 49 41h104q33 0 33 -41l-217 -1227q-11 -56 -25 -88h107q30 0 30 -30q0 -4 -17 -99l-30 -171q-13 -77 -18 -86.5t-15.5 -17.5t-23.5 -8h-112q-30 0 -30 33q0 4 38 213h-1239q-257 0 -257 211q0 35 7 76l211 1194q7 41 49 41
h104q33 0 33 -41l-217 -1227q-4 -26 -4 -39q0 -29 19 -39t63 -10h424l231 1315q8 41 49 41h105q33 0 33 -41z" />
    <glyph glyph-name="afii10044" unicode="&#xda;" horiz-adv-x="1386" 
d="M1387 399q-36 -207 -194.5 -310t-478.5 -103q-134 0 -238 7.5t-126.5 19.5t-22.5 44q0 11 2 23l225 1276h-223q-34 0 -34 33q0 4 9 55.5t19 64.5t36 13h373q30 0 30 -31q0 -4 -27 -156l-81 -452q124 8 244 8q239 0 370.5 -92.5t131.5 -270.5q0 -47 -8 -94zM529 152
q137 -9 213 -9q215 0 317 58.5t129 159.5t27 161q0 119 -92 165t-276 46q-81 0 -217 -8z" />
    <glyph glyph-name="afii10044" unicode="&#x42a;" horiz-adv-x="1386" 
d="M1387 399q-36 -207 -194.5 -310t-478.5 -103q-134 0 -238 7.5t-126.5 19.5t-22.5 44q0 11 2 23l225 1276h-223q-34 0 -34 33q0 4 9 55.5t19 64.5t36 13h373q30 0 30 -31q0 -4 -27 -156l-81 -452q124 8 244 8q239 0 370.5 -92.5t131.5 -270.5q0 -47 -8 -94zM529 152
q137 -9 213 -9q215 0 317 58.5t129 159.5t27 161q0 119 -92 165t-276 46q-81 0 -217 -8z" />
    <glyph glyph-name="afii10045" unicode="&#xdb;" horiz-adv-x="1767" 
d="M1616 41q-7 -41 -43 -41h-113q-31 0 -31 41l254 1442q8 39 45 39h113q18 0 23.5 -8.5t5.5 -30.5zM1229 397q-37 -206 -192.5 -308.5t-477.5 -102.5q-133 0 -237.5 7.5t-127 19.5t-22.5 44q0 11 2 23l248 1403q8 39 45 39h113q29 0 29 -31q0 -4 -27 -156l-80 -452
q125 8 217 8q524 0 524 -365q0 -47 -8 -94zM375 152q137 -9 213 -9q215 0 317 58.5t129 159.5t27 161q0 110 -84 160.5t-285 50.5q-81 0 -217 -8z" />
    <glyph glyph-name="afii10045" unicode="&#x42b;" horiz-adv-x="1767" 
d="M1616 41q-7 -41 -43 -41h-113q-31 0 -31 41l254 1442q8 39 45 39h113q18 0 23.5 -8.5t5.5 -30.5zM1229 397q-37 -206 -192.5 -308.5t-477.5 -102.5q-133 0 -237.5 7.5t-127 19.5t-22.5 44q0 11 2 23l248 1403q8 39 45 39h113q29 0 29 -31q0 -4 -27 -156l-80 -452
q125 8 217 8q524 0 524 -365q0 -47 -8 -94zM375 152q137 -9 213 -9q215 0 317 58.5t129 159.5t27 161q0 110 -84 160.5t-285 50.5q-81 0 -217 -8z" />
    <glyph glyph-name="afii10046" unicode="&#xdc;" horiz-adv-x="1231" 
d="M1229 397q-37 -206 -192.5 -308.5t-477.5 -102.5q-133 0 -237.5 7.5t-127 19.5t-22.5 44q0 11 2 23l248 1403q8 39 45 39h113q29 0 29 -31q0 -4 -27 -156l-80 -452q125 8 217 8q524 0 524 -365q0 -47 -8 -94zM375 152q137 -9 213 -9q215 0 317 58.5t129 159.5t27 161
q0 110 -84 160.5t-285 50.5q-81 0 -217 -8z" />
    <glyph glyph-name="afii10046" unicode="&#x42c;" horiz-adv-x="1231" 
d="M1229 397q-37 -206 -192.5 -308.5t-477.5 -102.5q-133 0 -237.5 7.5t-127 19.5t-22.5 44q0 11 2 23l248 1403q8 39 45 39h113q29 0 29 -31q0 -4 -27 -156l-80 -452q125 8 217 8q524 0 524 -365q0 -47 -8 -94zM375 152q137 -9 213 -9q215 0 317 58.5t129 159.5t27 161
q0 110 -84 160.5t-285 50.5q-81 0 -217 -8z" />
    <glyph glyph-name="afii10047" unicode="&#xdd;" horiz-adv-x="1174" 
d="M392 870h676q12 77 12 140q0 358 -374 358q-109 0 -192 -6l-129 -9q-28 0 -28 24q0 5 9.5 60.5t25 63.5t102 21.5t228.5 13.5q252 0 398.5 -135t146.5 -391q0 -160 -73 -450t-256 -432t-474 -142q-142 0 -223.5 11.5t-100.5 20t-19 28.5q0 4 9.5 56t19 59t33.5 7
q168 -14 310 -14q427 0 548 557h-675q-36 0 -36 32q0 3 9 55.5t22 62t31 9.5z" />
    <glyph glyph-name="afii10047" unicode="&#x42d;" horiz-adv-x="1174" 
d="M392 870h676q12 77 12 140q0 358 -374 358q-109 0 -192 -6l-129 -9q-28 0 -28 24q0 5 9.5 60.5t25 63.5t102 21.5t228.5 13.5q252 0 398.5 -135t146.5 -391q0 -160 -73 -450t-256 -432t-474 -142q-142 0 -223.5 11.5t-100.5 20t-19 28.5q0 4 9.5 56t19 59t33.5 7
q168 -14 310 -14q427 0 548 557h-675q-36 0 -36 32q0 3 9 55.5t22 62t31 9.5z" />
    <glyph glyph-name="afii10048" unicode="&#xde;" horiz-adv-x="1901" 
d="M485 1522h113q32 0 32 -28q0 -4 -29 -167l-85 -481h301q59 368 229 529t447 161q213 0 335 -124t122 -347q0 -121 -68.5 -457t-237 -479t-423.5 -143q-214 0 -336.5 123t-122.5 348q0 75 24 223h-299l-73 -415q-41 -231 -43 -240.5t-12 -17t-29 -7.5h-113q-19 0 -24 9
t-5 32l254 1442q8 39 43 39zM1249 154q88 0 162.5 30.5t133 93.5t96.5 153.5t73.5 291t41 238t5.5 102.5q0 155 -72 230t-225 75q-112 0 -201 -48.5t-152 -150t-93 -256.5q-66 -330 -66 -440q0 -169 75.5 -244t221.5 -75z" />
    <glyph glyph-name="afii10048" unicode="&#x42e;" horiz-adv-x="1901" 
d="M485 1522h113q32 0 32 -28q0 -4 -29 -167l-85 -481h301q59 368 229 529t447 161q213 0 335 -124t122 -347q0 -121 -68.5 -457t-237 -479t-423.5 -143q-214 0 -336.5 123t-122.5 348q0 75 24 223h-299l-73 -415q-41 -231 -43 -240.5t-12 -17t-29 -7.5h-113q-19 0 -24 9
t-5 32l254 1442q8 39 43 39zM1249 154q88 0 162.5 30.5t133 93.5t96.5 153.5t73.5 291t41 238t5.5 102.5q0 155 -72 230t-225 75q-112 0 -201 -48.5t-152 -150t-93 -256.5q-66 -330 -66 -440q0 -169 75.5 -244t221.5 -75z" />
    <glyph glyph-name="afii10049" unicode="&#xdf;" horiz-adv-x="1298" 
d="M1154 41q-7 -41 -43 -41h-111q-31 0 -31 31q0 4 27 157l80 455q-118 -6 -227 -6h-54l-473 -610q-20 -27 -57 -27h-131q-23 0 -23 22q0 12 9 23l483 623q-119 37 -185.5 131t-66.5 221q0 82 25 177.5t84 163t142.5 105.5t184.5 54t221 16q112 0 224.5 -6t144.5 -12
q19 -4 26 -12q3 -4 3 -31zM1103 801l100 561q-46 6 -225 6q-227 0 -336 -81.5t-109 -278.5q0 -117 85 -164t259 -47q82 0 226 4z" />
    <glyph glyph-name="afii10049" unicode="&#x42f;" horiz-adv-x="1298" 
d="M1154 41q-7 -41 -43 -41h-111q-31 0 -31 31q0 4 27 157l80 455q-118 -6 -227 -6h-54l-473 -610q-20 -27 -57 -27h-131q-23 0 -23 22q0 12 9 23l483 623q-119 37 -185.5 131t-66.5 221q0 82 25 177.5t84 163t142.5 105.5t184.5 54t221 16q112 0 224.5 -6t144.5 -12
q19 -4 26 -12q3 -4 3 -31zM1103 801l100 561q-46 6 -225 6q-227 0 -336 -81.5t-109 -278.5q0 -117 85 -164t259 -47q82 0 226 4z" />
    <glyph glyph-name="afii10065" unicode="&#xe0;" horiz-adv-x="1063" 
d="M930 41q-3 -17 -17 -29t-30 -12h-95q-35 0 -35 34q0 3 9 52q-188 -100 -334 -100q-128 0 -203 70.5t-75 199.5q0 85 31.5 191.5t146.5 166.5t366 60h168q23 125 23 164q0 81 -44.5 115t-144.5 34q-115 0 -196 -6l-128 -11q-33 0 -33 25q0 3 7.5 47.5t16 54.5t32 16
t121 17t199.5 11q350 0 350 -291q0 -53 -10 -111zM780 215l58 330h-152q-174 0 -247 -40t-92 -121t-19 -124q0 -66 37.5 -96.5t123.5 -30.5q126 0 291 82z" />
    <glyph glyph-name="afii10065" unicode="&#x430;" horiz-adv-x="1063" 
d="M930 41q-3 -17 -17 -29t-30 -12h-95q-35 0 -35 34q0 3 9 52q-188 -100 -334 -100q-128 0 -203 70.5t-75 199.5q0 85 31.5 191.5t146.5 166.5t366 60h168q23 125 23 164q0 81 -44.5 115t-144.5 34q-115 0 -196 -6l-128 -11q-33 0 -33 25q0 3 7.5 47.5t16 54.5t32 16
t121 17t199.5 11q350 0 350 -291q0 -53 -10 -111zM780 215l58 330h-152q-174 0 -247 -40t-92 -121t-19 -124q0 -66 37.5 -96.5t123.5 -30.5q126 0 291 82z" />
    <glyph glyph-name="afii10066" unicode="&#xe1;" horiz-adv-x="1116" 
d="M1096 471q-85 -485 -545 -485q-178 0 -274.5 105.5t-96.5 293.5q0 102 63.5 416t184.5 424.5t346 152.5q173 33 209 43t62 34t38 58q9 27 35 27h115q21 0 21 -18q0 -33 -33.5 -89.5t-88.5 -92.5t-106 -52t-242 -55q-157 -32 -216.5 -83.5t-78.5 -123.5q112 80 263 80
q180 0 277 -101.5t97 -287.5q0 -69 -14 -152zM580 141q131 0 213.5 77.5t117.5 248t35 252.5q0 233 -223 233q-131 0 -213.5 -78t-118 -250t-35.5 -251q0 -232 224 -232z" />
    <glyph glyph-name="afii10066" unicode="&#x431;" horiz-adv-x="1116" 
d="M1096 471q-85 -485 -545 -485q-178 0 -274.5 105.5t-96.5 293.5q0 102 63.5 416t184.5 424.5t346 152.5q173 33 209 43t62 34t38 58q9 27 35 27h115q21 0 21 -18q0 -33 -33.5 -89.5t-88.5 -92.5t-106 -52t-242 -55q-157 -32 -216.5 -83.5t-78.5 -123.5q112 80 263 80
q180 0 277 -101.5t97 -287.5q0 -69 -14 -152zM580 141q131 0 213.5 77.5t117.5 248t35 252.5q0 233 -223 233q-131 0 -213.5 -78t-118 -250t-35.5 -251q0 -232 224 -232z" />
    <glyph glyph-name="afii10067" unicode="&#xe2;" horiz-adv-x="1133" 
d="M1075 313q-23 -165 -164 -246t-413 -81q-96 0 -198 4.5t-122 10.5t-25.5 16t-5.5 38l181 1016q9 52 78 61t317 9q434 0 434 -258q0 -107 -50 -184.5t-144 -112.5q118 -54 118 -205q0 -25 -4 -53zM434 653h256q180 0 231.5 65t51.5 150q0 67 -65 96t-224 29
q-145 0 -190 -2zM342 135q120 -4 176 -4q149 0 234 30.5t117 90t32 131.5q0 64 -48.5 97.5t-186.5 33.5h-256z" />
    <glyph glyph-name="afii10067" unicode="&#x432;" horiz-adv-x="1133" 
d="M1075 313q-23 -165 -164 -246t-413 -81q-96 0 -198 4.5t-122 10.5t-25.5 16t-5.5 38l181 1016q9 52 78 61t317 9q434 0 434 -258q0 -107 -50 -184.5t-144 -112.5q118 -54 118 -205q0 -25 -4 -53zM434 653h256q180 0 231.5 65t51.5 150q0 67 -65 96t-224 29
q-145 0 -190 -2zM342 135q120 -4 176 -4q149 0 234 30.5t117 90t32 131.5q0 64 -48.5 97.5t-186.5 33.5h-256z" />
    <glyph glyph-name="afii10068" unicode="&#xe3;" horiz-adv-x="848" 
d="M926 971h-359q-44 0 -63.5 -15t-28.5 -63l-149 -852q-8 -41 -47 -41h-99q-35 0 -35 41l150 852q19 109 61.5 160t95 62t142.5 11h358q36 0 36 -29q0 -1 -7.5 -53.5t-20 -62.5t-34.5 -10z" />
    <glyph glyph-name="afii10068" unicode="&#x433;" horiz-adv-x="848" 
d="M926 971h-359q-44 0 -63.5 -15t-28.5 -63l-149 -852q-8 -41 -47 -41h-99q-35 0 -35 41l150 852q19 109 61.5 160t95 62t142.5 11h358q36 0 36 -29q0 -1 -7.5 -53.5t-20 -62.5t-34.5 -10z" />
    <glyph glyph-name="afii10069" unicode="&#xe4;" horiz-adv-x="1233" 
d="M1168 156q36 0 36 -29q0 -5 -15 -89l-28 -157q-13 -72 -16 -81t-13.5 -16t-30.5 -7h-96q-34 0 -34 29q0 5 34 194h-775q-33 -184 -35 -194t-13 -19.5t-34 -9.5h-96q-34 0 -34 28q0 5 15 90l28 157q13 72 17 81.5t14.5 16t27.5 6.5h67l383 829q37 80 91.5 118t146.5 38
q162 0 178 -154l88 -831h94zM734 942l-354 -786h510l-76 786q-3 37 -33 37t-47 -37z" />
    <glyph glyph-name="afii10069" unicode="&#x434;" horiz-adv-x="1233" 
d="M1168 156q36 0 36 -29q0 -5 -15 -89l-28 -157q-13 -72 -16 -81t-13.5 -16t-30.5 -7h-96q-34 0 -34 29q0 5 34 194h-775q-33 -184 -35 -194t-13 -19.5t-34 -9.5h-96q-34 0 -34 28q0 5 15 90l28 157q13 72 17 81.5t14.5 16t27.5 6.5h67l383 829q37 80 91.5 118t146.5 38
q162 0 178 -154l88 -831h94zM734 942l-354 -786h510l-76 786q-3 37 -33 37t-47 -37z" />
    <glyph glyph-name="afii10070" unicode="&#xe5;" horiz-adv-x="1114" 
d="M373 506q-17 -95 -17 -150q0 -219 254 -219q113 0 213 12l157 18q24 0 24 -21q0 -7 -8 -52.5t-14.5 -54t-18 -13t-81 -16.5t-141.5 -18t-157 -6q-182 0 -293 98.5t-111 280.5q0 102 52.5 323.5t189.5 337t340 115.5q177 0 276 -103.5t99 -277.5q0 -59 -16 -143t-24 -97.5
t-34 -13.5h-690zM942 643q14 70 14 123q0 217 -221 217q-124 0 -214 -88.5t-122 -251.5h543z" />
    <glyph glyph-name="afii10070" unicode="&#x435;" horiz-adv-x="1114" 
d="M373 506q-17 -95 -17 -150q0 -219 254 -219q113 0 213 12l157 18q24 0 24 -21q0 -7 -8 -52.5t-14.5 -54t-18 -13t-81 -16.5t-141.5 -18t-157 -6q-182 0 -293 98.5t-111 280.5q0 102 52.5 323.5t189.5 337t340 115.5q177 0 276 -103.5t99 -277.5q0 -59 -16 -143t-24 -97.5
t-34 -13.5h-690zM942 643q14 70 14 123q0 217 -221 217q-124 0 -214 -88.5t-122 -251.5h543z" />
    <glyph glyph-name="afii10072" unicode="&#xe6;" horiz-adv-x="1597" 
d="M1156 575l348 -530q4 -4 4 -18q0 -27 -27 -27h-139q-26 0 -35 15l-327 515l-56 -314q-31 -178 -34 -187t-15.5 -19t-27.5 -10h-99q-35 0 -35 34q0 3 22 127l64 369l-354 -360q-155 -158 -164 -164t-28 -6h-160q-21 0 -21 21q0 13 11 24l565 563l-238 316
q-121 161 -123.5 165.5t-2.5 11.5q0 25 34 25h135q18 0 25.5 -4.5t111.5 -151.5l230 -323l50 284q28 158 31.5 167t16 18.5t27.5 9.5h98q36 0 36 -34q0 -3 -79 -445l501 470q11 9 34 9h166q29 0 29 -19q0 -12 -15 -26z" />
    <glyph glyph-name="afii10072" unicode="&#x436;" horiz-adv-x="1597" 
d="M1156 575l348 -530q4 -4 4 -18q0 -27 -27 -27h-139q-26 0 -35 15l-327 515l-56 -314q-31 -178 -34 -187t-15.5 -19t-27.5 -10h-99q-35 0 -35 34q0 3 22 127l64 369l-354 -360q-155 -158 -164 -164t-28 -6h-160q-21 0 -21 21q0 13 11 24l565 563l-238 316
q-121 161 -123.5 165.5t-2.5 11.5q0 25 34 25h135q18 0 25.5 -4.5t111.5 -151.5l230 -323l50 284q28 158 31.5 167t16 18.5t27.5 9.5h98q36 0 36 -34q0 -3 -79 -445l501 470q11 9 34 9h166q29 0 29 -19q0 -12 -15 -26z" />
    <glyph glyph-name="afii10073" unicode="&#xe7;" horiz-adv-x="1036" 
d="M971 309q-18 -156 -153 -239.5t-359 -83.5q-112 0 -201.5 11.5t-108 20t-18.5 25.5q0 3 8 51.5t16 55t38 6.5q184 -19 292 -19q131 0 196 34.5t88.5 101.5t23.5 118q0 123 -175 123h-319q-34 0 -34 26q0 11 8.5 54t18.5 51t32 8h319q147 0 192.5 80t45.5 148
q0 59 -56.5 83.5t-189.5 24.5q-72 0 -161 -7l-147 -12q-29 0 -29 25q0 4 8 50t17 54.5t37 15.5t118.5 16.5t185.5 9.5q403 0 403 -244q0 -88 -46 -174t-159 -139q115 -58 115 -193q0 -26 -4 -63z" />
    <glyph glyph-name="afii10073" unicode="&#x437;" horiz-adv-x="1036" 
d="M971 309q-18 -156 -153 -239.5t-359 -83.5q-112 0 -201.5 11.5t-108 20t-18.5 25.5q0 3 8 51.5t16 55t38 6.5q184 -19 292 -19q131 0 196 34.5t88.5 101.5t23.5 118q0 123 -175 123h-319q-34 0 -34 26q0 11 8.5 54t18.5 51t32 8h319q147 0 192.5 80t45.5 148
q0 59 -56.5 83.5t-189.5 24.5q-72 0 -161 -7l-147 -12q-29 0 -29 25q0 4 8 50t17 54.5t37 15.5t118.5 16.5t185.5 9.5q403 0 403 -244q0 -88 -46 -174t-159 -139q115 -58 115 -193q0 -26 -4 -63z" />
    <glyph glyph-name="afii10074" unicode="&#xe8;" horiz-adv-x="1141" 
d="M1061 1126h100q20 0 25.5 -9t5.5 -32l-182 -1044q-3 -17 -17 -29t-30 -12h-97q-31 0 -31 32q0 4 7 46q-175 -92 -340 -92q-139 0 -219 85t-80 238q0 58 12 123l114 651q4 21 16.5 32t33.5 11h98q34 0 34 -31q0 -4 -30 -175l-90 -508q-12 -68 -12 -117q0 -83 42 -117.5
t148 -34.5q126 0 291 76l152 866q7 41 49 41z" />
    <glyph glyph-name="afii10074" unicode="&#x438;" horiz-adv-x="1141" 
d="M1061 1126h100q20 0 25.5 -9t5.5 -32l-182 -1044q-3 -17 -17 -29t-30 -12h-97q-31 0 -31 32q0 4 7 46q-175 -92 -340 -92q-139 0 -219 85t-80 238q0 58 12 123l114 651q4 21 16.5 32t33.5 11h98q34 0 34 -31q0 -4 -30 -175l-90 -508q-12 -68 -12 -117q0 -83 42 -117.5
t148 -34.5q126 0 291 76l152 866q7 41 49 41z" />
    <glyph glyph-name="afii10075" unicode="&#xe9;" horiz-adv-x="1141" 
d="M1169 1595q19 0 19 -18q0 -28 -39 -113t-124.5 -138.5t-205.5 -53.5q-136 0 -218.5 75.5t-82.5 213.5q0 34 37 34h68q15 0 19.5 -7t4.5 -25q0 -164 176 -164q88 0 150 43t84 121q9 32 37 32h75zM1061 1126h100q20 0 25.5 -9t5.5 -32l-182 -1044q-3 -17 -17 -29t-30 -12
h-97q-31 0 -31 32q0 4 7 46q-175 -92 -340 -92q-139 0 -219 85t-80 238q0 58 12 123l114 651q4 21 16.5 32t33.5 11h98q34 0 34 -31q0 -4 -30 -175l-90 -508q-12 -68 -12 -117q0 -83 42 -117.5t148 -34.5q126 0 291 76l152 866q7 41 49 41z" />
    <glyph glyph-name="afii10075" unicode="&#x439;" horiz-adv-x="1141" 
d="M1169 1595q19 0 19 -18q0 -28 -39 -113t-124.5 -138.5t-205.5 -53.5q-136 0 -218.5 75.5t-82.5 213.5q0 34 37 34h68q15 0 19.5 -7t4.5 -25q0 -164 176 -164q88 0 150 43t84 121q9 32 37 32h75zM1061 1126h100q20 0 25.5 -9t5.5 -32l-182 -1044q-3 -17 -17 -29t-30 -12
h-97q-31 0 -31 32q0 4 7 46q-175 -92 -340 -92q-139 0 -219 85t-80 238q0 58 12 123l114 651q4 21 16.5 32t33.5 11h98q34 0 34 -31q0 -4 -30 -175l-90 -508q-12 -68 -12 -117q0 -83 42 -117.5t148 -34.5q126 0 291 76l152 866q7 41 49 41z" />
    <glyph glyph-name="afii10076" unicode="&#xea;" horiz-adv-x="1016" 
d="M774 0q-26 0 -35 15l-327 515l-56 -313q-31 -179 -33.5 -188.5t-14 -19t-29.5 -9.5h-99q-21 0 -28 9.5t-7 31.5l185 1044q7 41 47 41h98q36 0 36 -32q0 -4 -79 -447l501 470q11 9 34 9h151q31 0 31 -23q0 -14 -8 -22l-553 -501l233 -359q117 -179 119 -184t2 -11
q0 -26 -29 -26h-139z" />
    <glyph glyph-name="afii10076" unicode="&#x43a;" horiz-adv-x="1016" 
d="M774 0q-26 0 -35 15l-327 515l-56 -313q-31 -179 -33.5 -188.5t-14 -19t-29.5 -9.5h-99q-21 0 -28 9.5t-7 31.5l185 1044q7 41 47 41h98q36 0 36 -32q0 -4 -79 -447l501 470q11 9 34 9h151q31 0 31 -23q0 -14 -8 -22l-553 -501l233 -359q117 -179 119 -184t2 -11
q0 -26 -29 -26h-139z" />
    <glyph glyph-name="afii10077" unicode="&#xeb;" horiz-adv-x="1102" 
d="M856 31l-86 911q-3 37 -33 37t-47 -37l-410 -911q-15 -31 -40 -31h-130q-28 0 -28 30q0 9 4 17l434 938q35 77 96 116.5t133 39.5q170 0 187 -154l104 -940q0 -47 -41 -47h-112q-28 0 -31 31z" />
    <glyph glyph-name="afii10077" unicode="&#x43b;" horiz-adv-x="1102" 
d="M856 31l-86 911q-3 37 -33 37t-47 -37l-410 -911q-15 -31 -40 -31h-130q-28 0 -28 30q0 9 4 17l434 938q35 77 96 116.5t133 39.5q170 0 187 -154l104 -940q0 -47 -41 -47h-112q-28 0 -31 31z" />
    <glyph glyph-name="afii10078" unicode="&#xec;" horiz-adv-x="1358" 
d="M1225 41q-8 -41 -47 -41h-95q-34 0 -34 41l151 862l-205 -283q-111 -153 -122.5 -166t-31 -21.5t-48.5 -8.5h-80q-23 0 -38 5t-25 15.5t-32 70.5l-145 388l-151 -862q-8 -41 -48 -41h-94q-35 0 -35 41l185 1044q7 41 47 41h127q18 0 30 -2.5t19.5 -9t36.5 -85.5l172 -458
q3 -10 10 -10q4 0 43 53l350 482q21 30 70 30h139q35 0 35 -41z" />
    <glyph glyph-name="afii10078" unicode="&#x43c;" horiz-adv-x="1358" 
d="M1225 41q-8 -41 -47 -41h-95q-34 0 -34 41l151 862l-205 -283q-111 -153 -122.5 -166t-31 -21.5t-48.5 -8.5h-80q-23 0 -38 5t-25 15.5t-32 70.5l-145 388l-151 -862q-8 -41 -48 -41h-94q-35 0 -35 41l185 1044q7 41 47 41h127q18 0 30 -2.5t19.5 -9t36.5 -85.5l172 -458
q3 -10 10 -10q4 0 43 53l350 482q21 30 70 30h139q35 0 35 -41z" />
    <glyph glyph-name="afii10079" unicode="&#xed;" horiz-adv-x="1182" 
d="M1049 41q-8 -41 -48 -41h-98q-36 0 -36 31q0 4 81 467h-542l-52 -294q-29 -166 -31.5 -175.5t-13.5 -19t-30 -9.5h-99q-21 0 -28 9.5t-7 31.5l185 1044q7 41 47 41h98q36 0 36 -30q0 -5 -77 -445h543l49 282q27 156 29.5 166t12.5 18.5t32 8.5h98q21 0 28 -9.5t7 -31.5z
" />
    <glyph glyph-name="afii10079" unicode="&#x43d;" horiz-adv-x="1182" 
d="M1049 41q-8 -41 -48 -41h-98q-36 0 -36 31q0 4 81 467h-542l-52 -294q-29 -166 -31.5 -175.5t-13.5 -19t-30 -9.5h-99q-21 0 -28 9.5t-7 31.5l185 1044q7 41 47 41h98q36 0 36 -30q0 -5 -77 -445h543l49 282q27 156 29.5 166t12.5 18.5t32 8.5h98q21 0 28 -9.5t7 -31.5z
" />
    <glyph glyph-name="afii10080" unicode="&#xee;" horiz-adv-x="1116" 
d="M758 1141q179 0 279 -103.5t100 -281.5q0 -93 -48 -319t-183 -338.5t-351 -112.5q-176 0 -276.5 104.5t-100.5 282.5q0 91 48.5 317.5t182 338.5t349.5 112zM582 143q119 0 210.5 82.5t127.5 265.5t36 267q0 225 -225 225q-118 0 -209.5 -80t-128.5 -274.5t-37 -263.5
q0 -222 226 -222z" />
    <glyph glyph-name="afii10080" unicode="&#x43e;" horiz-adv-x="1116" 
d="M758 1141q179 0 279 -103.5t100 -281.5q0 -93 -48 -319t-183 -338.5t-351 -112.5q-176 0 -276.5 104.5t-100.5 282.5q0 91 48.5 317.5t182 338.5t349.5 112zM582 143q119 0 210.5 82.5t127.5 265.5t36 267q0 225 -225 225q-118 0 -209.5 -80t-128.5 -274.5t-37 -263.5
q0 -222 226 -222z" />
    <glyph glyph-name="afii10081" unicode="&#xef;" horiz-adv-x="1182" 
d="M1196 877l-147 -836q-4 -17 -17.5 -29t-30.5 -12h-98q-35 0 -35 41l150 852q4 25 4 33q0 25 -15 35t-53 10h-387q-44 0 -63.5 -15t-28.5 -63l-149 -852q-3 -17 -17 -29t-30 -12h-99q-35 0 -35 41l152 868q17 100 64 147.5t102 58.5t131 11h387q221 0 221 -180
q0 -35 -6 -69z" />
    <glyph glyph-name="afii10081" unicode="&#x43f;" horiz-adv-x="1182" 
d="M1196 877l-147 -836q-4 -17 -17.5 -29t-30.5 -12h-98q-35 0 -35 41l150 852q4 25 4 33q0 25 -15 35t-53 10h-387q-44 0 -63.5 -15t-28.5 -63l-149 -852q-3 -17 -17 -29t-30 -12h-99q-35 0 -35 41l152 868q17 100 64 147.5t102 58.5t131 11h387q221 0 221 -180
q0 -35 -6 -69z" />
    <glyph glyph-name="afii10082" unicode="&#xf0;" horiz-adv-x="1108" 
d="M322 8l-43 -240q-24 -134 -27 -142.5t-15.5 -17.5t-27.5 -9h-105q-28 0 -28 30v9l248 1409q3 26 22.5 37.5t153.5 34t260 22.5q178 0 274 -99t96 -276q0 -103 -52 -337t-177 -338.5t-344 -104.5q-113 0 -235 22zM348 158q115 -21 236 -21q119 0 203 77.5t124.5 276.5
t40.5 285q0 112 -53 162.5t-166 50.5q-123 0 -244 -20z" />
    <glyph glyph-name="afii10082" unicode="&#x440;" horiz-adv-x="1108" 
d="M322 8l-43 -240q-24 -134 -27 -142.5t-15.5 -17.5t-27.5 -9h-105q-28 0 -28 30v9l248 1409q3 26 22.5 37.5t153.5 34t260 22.5q178 0 274 -99t96 -276q0 -103 -52 -337t-177 -338.5t-344 -104.5q-113 0 -235 22zM348 158q115 -21 236 -21q119 0 203 77.5t124.5 276.5
t40.5 285q0 112 -53 162.5t-166 50.5q-123 0 -244 -20z" />
    <glyph glyph-name="afii10083" unicode="&#xf1;" horiz-adv-x="926" 
d="M975 968q-5 0 -12 1q-103 14 -250 14q-111 0 -198 -80t-123 -277t-36 -266q0 -217 207 -217q136 0 197 7.5t73 7.5q26 0 26 -21q0 -4 -8.5 -56t-21.5 -61.5t-98 -21.5t-194 -12q-169 0 -264 104.5t-95 280.5q0 89 47 316t180 340.5t334 113.5q97 0 180.5 -11.5t95 -18
t11.5 -20.5q0 -7 -8.5 -57t-16 -58t-26.5 -8z" />
    <glyph glyph-name="afii10083" unicode="&#x441;" horiz-adv-x="926" 
d="M975 968q-5 0 -12 1q-103 14 -250 14q-111 0 -198 -80t-123 -277t-36 -266q0 -217 207 -217q136 0 197 7.5t73 7.5q26 0 26 -21q0 -4 -8.5 -56t-21.5 -61.5t-98 -21.5t-194 -12q-169 0 -264 104.5t-95 280.5q0 89 47 316t180 340.5t334 113.5q97 0 180.5 -11.5t95 -18
t11.5 -20.5q0 -7 -8.5 -57t-16 -58t-26.5 -8z" />
    <glyph glyph-name="afii10084" unicode="&#xf2;" horiz-adv-x="1081" 
d="M1189 1018q-8 -41 -47 -41h-338l-166 -936q-8 -41 -47 -41h-98q-35 0 -35 41l166 936h-338q-36 0 -36 33q0 4 8 48t18 56t34 12h856q21 0 28 -9.5t7 -31.5z" />
    <glyph glyph-name="afii10084" unicode="&#x442;" horiz-adv-x="1081" 
d="M1189 1018q-8 -41 -47 -41h-338l-166 -936q-8 -41 -47 -41h-98q-35 0 -35 41l166 936h-338q-36 0 -36 33q0 4 8 48t18 56t34 12h856q21 0 28 -9.5t7 -31.5z" />
    <glyph glyph-name="afii10085" unicode="&#xf3;" horiz-adv-x="1094" 
d="M605 160l414 936q12 30 45 30h121q28 0 28 -26q0 -9 -6 -23l-547 -1179q-85 -186 -176 -245t-252 -59q-50 0 -128.5 10.5t-78.5 36.5q0 2 9.5 51.5t17 55.5t39.5 6q129 -12 180 -12q90 0 142 34.5t127 223.5h-23q-68 0 -97 42t-38 118l-105 917q0 32 9.5 40.5t33.5 8.5
h107q25 0 29 -32l86 -889q4 -45 30 -45h33z" />
    <glyph glyph-name="afii10085" unicode="&#x443;" horiz-adv-x="1094" 
d="M605 160l414 936q12 30 45 30h121q28 0 28 -26q0 -9 -6 -23l-547 -1179q-85 -186 -176 -245t-252 -59q-50 0 -128.5 10.5t-78.5 36.5q0 2 9.5 51.5t17 55.5t39.5 6q129 -12 180 -12q90 0 142 34.5t127 223.5h-23q-68 0 -97 42t-38 118l-105 917q0 32 9.5 40.5t33.5 8.5
h107q25 0 29 -32l86 -889q4 -45 30 -45h33z" />
    <glyph glyph-name="afii10086" unicode="&#xf4;" horiz-adv-x="1700" 
d="M958 1130l44 243q23 131 25.5 141t12.5 18t31 8h98q36 0 36 -31q0 -4 -66 -379q90 11 192 11q389 0 389 -373q0 -100 -49.5 -337t-179 -341t-344.5 -104q-67 0 -207 16l-42 -236q-24 -131 -26.5 -140.5t-13 -18t-29.5 -8.5h-104q-32 0 -32 28q0 5 67 375
q-152 -16 -215 -16q-178 0 -272.5 100t-94.5 287q0 109 51 340t183 329.5t358 98.5q103 0 188 -11zM967 152q122 -15 207 -15q123 0 204 71t121.5 271t40.5 287q0 116 -56.5 169.5t-174.5 53.5q-106 0 -197 -10zM932 979q-93 10 -193 10q-133 0 -218 -72t-126 -273t-41 -284
q0 -223 217 -223q83 0 215 15z" />
    <glyph glyph-name="afii10086" unicode="&#x444;" horiz-adv-x="1700" 
d="M958 1130l44 243q23 131 25.5 141t12.5 18t31 8h98q36 0 36 -31q0 -4 -66 -379q90 11 192 11q389 0 389 -373q0 -100 -49.5 -337t-179 -341t-344.5 -104q-67 0 -207 16l-42 -236q-24 -131 -26.5 -140.5t-13 -18t-29.5 -8.5h-104q-32 0 -32 28q0 5 67 375
q-152 -16 -215 -16q-178 0 -272.5 100t-94.5 287q0 109 51 340t183 329.5t358 98.5q103 0 188 -11zM967 152q122 -15 207 -15q123 0 204 71t121.5 271t40.5 287q0 116 -56.5 169.5t-174.5 53.5q-106 0 -197 -10zM932 979q-93 10 -193 10q-133 0 -218 -72t-126 -273t-41 -284
q0 -223 217 -223q83 0 215 15z" />
    <glyph glyph-name="afii10087" unicode="&#xf5;" horiz-adv-x="1120" 
d="M702 719q331 378 344.5 392.5t34.5 14.5h125q23 0 23 -20q0 -6 -3 -13t-55 -66l-395 -449l274 -531q6 -9 6 -20q0 -27 -32 -27h-115q-20 0 -27 8t-79 147l-148 285q-368 -417 -377.5 -428.5t-32.5 -11.5h-118q-29 0 -29 19q0 14 10 25l473 540l-173 335
q-83 160 -85 165.5t-2 11.5q0 30 35 30h113q14 0 21.5 -7.5t70.5 -128.5z" />
    <glyph glyph-name="afii10087" unicode="&#x445;" horiz-adv-x="1120" 
d="M702 719q331 378 344.5 392.5t34.5 14.5h125q23 0 23 -20q0 -6 -3 -13t-55 -66l-395 -449l274 -531q6 -9 6 -20q0 -27 -32 -27h-115q-20 0 -27 8t-79 147l-148 285q-368 -417 -377.5 -428.5t-32.5 -11.5h-118q-29 0 -29 19q0 14 10 25l473 540l-173 335
q-83 160 -85 165.5t-2 11.5q0 30 35 30h113q14 0 21.5 -7.5t70.5 -128.5z" />
    <glyph glyph-name="afii10088" unicode="&#xf6;" horiz-adv-x="1196" 
d="M903 233l150 852q7 41 47 41h98q21 0 28 -9.5t7 -31.5l-152 -854q-10 -49 -20 -75h80q36 0 36 -29q0 -5 -16 -91l-28 -157q-12 -71 -16 -80t-15 -15.5t-29 -6.5h-96q-34 0 -34 31q0 5 34 192h-580q-219 0 -219 190q0 35 6 70l146 825q7 41 47 41h98q22 0 28.5 -9t6.5 -32
l-150 -852q-3 -19 -3 -32q0 -26 14.5 -35.5t52.5 -9.5h387q45 0 64.5 14.5t27.5 62.5z" />
    <glyph glyph-name="afii10088" unicode="&#x446;" horiz-adv-x="1196" 
d="M903 233l150 852q7 41 47 41h98q21 0 28 -9.5t7 -31.5l-152 -854q-10 -49 -20 -75h80q36 0 36 -29q0 -5 -16 -91l-28 -157q-12 -71 -16 -80t-15 -15.5t-29 -6.5h-96q-34 0 -34 31q0 5 34 192h-580q-219 0 -219 190q0 35 6 70l146 825q7 41 47 41h98q22 0 28.5 -9t6.5 -32
l-150 -852q-3 -19 -3 -32q0 -26 14.5 -35.5t52.5 -9.5h387q45 0 64.5 14.5t27.5 62.5z" />
    <glyph glyph-name="afii10089" unicode="&#xf7;" horiz-adv-x="1116" 
d="M983 41q-7 -41 -47 -41h-98q-36 0 -36 32q0 4 75 429q-166 -27 -304 -27q-342 0 -342 266q0 44 8 83l29 162q22 123 26 143.5t15 29t31 8.5h98q36 0 36 -30q0 -5 -58 -334q-6 -31 -6 -57q0 -71 50.5 -98t174.5 -27q120 0 266 22l55 311q32 176 34.5 185.5t13 18.5t30.5 9
h99q20 0 27 -9.5t7 -31.5z" />
    <glyph glyph-name="afii10089" unicode="&#x447;" horiz-adv-x="1116" 
d="M983 41q-7 -41 -47 -41h-98q-36 0 -36 32q0 4 75 429q-166 -27 -304 -27q-342 0 -342 266q0 44 8 83l29 162q22 123 26 143.5t15 29t31 8.5h98q36 0 36 -30q0 -5 -58 -334q-6 -31 -6 -57q0 -71 50.5 -98t174.5 -27q120 0 266 22l55 311q32 176 34.5 185.5t13 18.5t30.5 9
h99q20 0 27 -9.5t7 -31.5z" />
    <glyph glyph-name="afii10090" unicode="&#xf8;" horiz-adv-x="1659" 
d="M1561 233q-19 -108 -65.5 -159t-100 -62.5t-133.5 -11.5h-859q-225 0 -225 186q0 31 6 68l146 831q7 41 47 41h98q35 0 35 -41l-150 -852q-4 -23 -4 -32q0 -26 15 -35.5t53 -9.5h342l164 929q7 41 47 41h98q35 0 35 -41l-164 -929h342q47 0 66 16t26 61l150 852
q7 41 47 41h94q39 0 39 -41z" />
    <glyph glyph-name="afii10090" unicode="&#x448;" horiz-adv-x="1659" 
d="M1561 233q-19 -108 -65.5 -159t-100 -62.5t-133.5 -11.5h-859q-225 0 -225 186q0 31 6 68l146 831q7 41 47 41h98q35 0 35 -41l-150 -852q-4 -23 -4 -32q0 -26 15 -35.5t53 -9.5h342l164 929q7 41 47 41h98q35 0 35 -41l-164 -929h342q47 0 66 16t26 61l150 852
q7 41 47 41h94q39 0 39 -41z" />
    <glyph glyph-name="afii10091" unicode="&#xf9;" horiz-adv-x="1683" 
d="M1559 231q-10 -52 -21 -75h74q42 0 42 -30q0 -4 -15 -88l-28 -157q-13 -74 -16.5 -83t-14 -15t-30.5 -6h-96q-34 0 -34 29q0 4 34 194h-1048q-228 0 -228 188q0 30 6 70l146 827q7 41 47 41h98q35 0 35 -41l-150 -852q-4 -23 -4 -32q0 -26 15 -35.5t53 -9.5h342l164 929
q7 41 47 41h98q21 0 28 -9t7 -32l-164 -929h342q47 0 66 16t26 61l150 852q7 41 47 41h98q21 0 28 -9t7 -32z" />
    <glyph glyph-name="afii10091" unicode="&#x449;" horiz-adv-x="1683" 
d="M1559 231q-10 -52 -21 -75h74q42 0 42 -30q0 -4 -15 -88l-28 -157q-13 -74 -16.5 -83t-14 -15t-30.5 -6h-96q-34 0 -34 29q0 4 34 194h-1048q-228 0 -228 188q0 30 6 70l146 827q7 41 47 41h98q35 0 35 -41l-150 -852q-4 -23 -4 -32q0 -26 15 -35.5t53 -9.5h342l164 929
q7 41 47 41h98q21 0 28 -9t7 -32l-164 -929h342q47 0 66 16t26 61l150 852q7 41 47 41h98q21 0 28 -9t7 -32z" />
    <glyph glyph-name="afii10092" unicode="&#xfa;" horiz-adv-x="1219" 
d="M548 686q117 4 192 4q463 0 463 -299q0 -185 -153.5 -295t-425.5 -110q-125 0 -232.5 5t-123 15.5t-15.5 31.5q0 6 2 17l162 916h-170q-38 0 -38 31q0 4 8 51.5t18 60t34 12.5h307q26 0 33.5 -9t7.5 -32zM452 147l186 -6q381 0 381 240q0 154 -311 154l-189 -7z" />
    <glyph glyph-name="afii10092" unicode="&#x44a;" horiz-adv-x="1219" 
d="M548 686q117 4 192 4q463 0 463 -299q0 -185 -153.5 -295t-425.5 -110q-125 0 -232.5 5t-123 15.5t-15.5 31.5q0 6 2 17l162 916h-170q-38 0 -38 31q0 4 8 51.5t18 60t34 12.5h307q26 0 33.5 -9t7.5 -32zM452 147l186 -6q381 0 381 240q0 154 -311 154l-189 -7z" />
    <glyph glyph-name="afii10093" unicode="&#xfb;" horiz-adv-x="1530" 
d="M1376 41q-7 -41 -47 -41h-98q-22 0 -28.5 9t-6.5 32l184 1044q8 41 47 41h99q23 0 29 -8.5t6 -32.5zM1087 317q-41 -331 -579 -331q-140 0 -223.5 4.5t-105.5 11.5t-27 16.5t-5 36.5l183 1030q7 41 47 41h98q36 0 36 -32q0 -4 -71 -408q117 4 193 4q225 0 344 -73.5
t119 -215.5q0 -18 -6 -67zM344 147q86 -6 199 -6q183 0 274.5 57t91.5 189q0 80 -76 114t-233 34l-188 -7z" />
    <glyph glyph-name="afii10093" unicode="&#x44b;" horiz-adv-x="1530" 
d="M1376 41q-7 -41 -47 -41h-98q-22 0 -28.5 9t-6.5 32l184 1044q8 41 47 41h99q23 0 29 -8.5t6 -32.5zM1087 317q-41 -331 -579 -331q-140 0 -223.5 4.5t-105.5 11.5t-27 16.5t-5 36.5l183 1030q7 41 47 41h98q36 0 36 -32q0 -4 -71 -408q117 4 193 4q225 0 344 -73.5
t119 -215.5q0 -18 -6 -67zM344 147q86 -6 199 -6q183 0 274.5 57t91.5 189q0 80 -76 114t-233 34l-188 -7z" />
    <glyph glyph-name="afii10094" unicode="&#xfc;" horiz-adv-x="1112" 
d="M1087 317q-41 -331 -579 -331q-140 0 -223.5 4.5t-105.5 11.5t-27 16.5t-5 36.5l183 1030q7 41 47 41h98q36 0 36 -32q0 -4 -71 -408q117 4 193 4q225 0 344 -73.5t119 -215.5q0 -18 -6 -67zM344 147q86 -6 199 -6q183 0 274.5 57t91.5 189q0 80 -76 114t-233 34l-188 -7
z" />
    <glyph glyph-name="afii10094" unicode="&#x44c;" horiz-adv-x="1112" 
d="M1087 317q-41 -331 -579 -331q-140 0 -223.5 4.5t-105.5 11.5t-27 16.5t-5 36.5l183 1030q7 41 47 41h98q36 0 36 -32q0 -4 -71 -408q117 4 193 4q225 0 344 -73.5t119 -215.5q0 -18 -6 -67zM344 147q86 -6 199 -6q183 0 274.5 57t91.5 189q0 80 -76 114t-233 34l-188 -7
z" />
    <glyph glyph-name="afii10095" unicode="&#xfd;" horiz-adv-x="926" 
d="M104 53l13 74q5 31 42 31l115 -9q66 -6 129 -6q277 0 332 353h-424q-34 0 -34 29q0 5 8.5 52.5t17 59.5t35.5 12h424q10 54 10 113q0 221 -221 221q-113 0 -242 -14q-37 0 -37 23q0 3 8.5 54t20 60.5t92.5 22t178 12.5q185 0 282 -97.5t97 -279.5q0 -91 -48 -326.5
t-175.5 -343.5t-329.5 -108q-138 0 -257 22q-42 7 -36 45z" />
    <glyph glyph-name="afii10095" unicode="&#x44d;" horiz-adv-x="926" 
d="M104 53l13 74q5 31 42 31l115 -9q66 -6 129 -6q277 0 332 353h-424q-34 0 -34 29q0 5 8.5 52.5t17 59.5t35.5 12h424q10 54 10 113q0 221 -221 221q-113 0 -242 -14q-37 0 -37 23q0 3 8.5 54t20 60.5t92.5 22t178 12.5q185 0 282 -97.5t97 -279.5q0 -91 -48 -326.5
t-175.5 -343.5t-329.5 -108q-138 0 -257 22q-42 7 -36 45z" />
    <glyph glyph-name="afii10096" unicode="&#xfe;" horiz-adv-x="1581" 
d="M381 1126h98q34 0 34 -27q0 -5 -77 -450h242q90 492 543 492q179 0 278.5 -103.5t99.5 -281.5q0 -93 -47.5 -319t-182.5 -338.5t-351 -112.5q-177 0 -277 104.5t-100 282.5q0 45 12 127h-243l-52 -296q-29 -166 -31.5 -176t-13.5 -19t-32 -9h-99q-20 0 -26 9.5t-6 31.5
l182 1044q7 41 49 41zM1044 143q120 0 211.5 82.5t127.5 265.5t36 267q0 225 -225 225q-118 0 -209.5 -80t-128.5 -274.5t-37 -263.5q0 -222 225 -222z" />
    <glyph glyph-name="afii10096" unicode="&#x44e;" horiz-adv-x="1581" 
d="M381 1126h98q34 0 34 -27q0 -5 -77 -450h242q90 492 543 492q179 0 278.5 -103.5t99.5 -281.5q0 -93 -47.5 -319t-182.5 -338.5t-351 -112.5q-177 0 -277 104.5t-100 282.5q0 45 12 127h-243l-52 -296q-29 -166 -31.5 -176t-13.5 -19t-32 -9h-99q-20 0 -26 9.5t-6 31.5
l182 1044q7 41 49 41zM1044 143q120 0 211.5 82.5t127.5 265.5t36 267q0 225 -225 225q-118 0 -209.5 -80t-128.5 -274.5t-37 -263.5q0 -222 225 -222z" />
    <glyph glyph-name="afii10097" unicode="&#xff;" horiz-adv-x="1104" 
d="M980 41q-7 -41 -47 -41h-99q-35 0 -35 33q0 4 74 428q-87 -4 -147 -4h-41l-243 -276q-140 -158 -147.5 -166t-19 -11.5t-28.5 -3.5h-105q-36 0 -36 27q0 11 4 16l391 434q-218 63 -218 266q0 131 62.5 219.5t186 133.5t300.5 45q160 0 235.5 -7t86 -15.5t10.5 -33.5z
M900 606l67 383q-41 4 -147 4q-193 0 -276.5 -56.5t-83.5 -184.5q0 -83 70 -116.5t220 -33.5z" />
    <glyph glyph-name="afii10097" unicode="&#x44f;" horiz-adv-x="1104" 
d="M980 41q-7 -41 -47 -41h-99q-35 0 -35 33q0 4 74 428q-87 -4 -147 -4h-41l-243 -276q-140 -158 -147.5 -166t-19 -11.5t-28.5 -3.5h-105q-36 0 -36 27q0 11 4 16l391 434q-218 63 -218 266q0 131 62.5 219.5t186 133.5t300.5 45q160 0 235.5 -7t86 -15.5t10.5 -33.5z
M900 606l67 383q-41 4 -147 4q-193 0 -276.5 -56.5t-83.5 -184.5q0 -83 70 -116.5t220 -33.5z" />
    <glyph glyph-name="Euro" unicode="&#x2c6;" 
d="M1386 1477l-18 -105q0 -6 -2.5 -9.5t-7.5 -6.5t-8.5 -4.5t-10.5 -1.5h-6q-18 2 -39.5 4t-46.5 4q-49 5 -105 7.5t-116 2.5q-69 0 -137 -19.5t-128.5 -64.5t-109 -119t-78.5 -184h582q14 0 25.5 -9t11.5 -22q0 -6 -2 -10q-5 -12 -10.5 -25.5t-10.5 -25.5q-6 -17 -19 -29
t-30 -12h-577q-8 -42 -14.5 -83t-14.5 -83h524q13 0 21 -8t8 -19q0 -3 -1 -6t-3 -8q-5 -12 -10.5 -25.5t-10.5 -25.5q-6 -17 -19 -29t-30 -12h-499q-2 -19 -3.5 -35.5t-1.5 -32.5q0 -92 25.5 -154.5t69.5 -101t102.5 -55t124.5 -16.5q90 0 172 5.5t137 10.5h8q27 0 27 -23
v-10q-3 -21 -7 -41.5t-7 -42.5q-3 -18 -17.5 -28t-31.5 -13q-33 -6 -61 -11t-61 -8t-77 -5t-109 -2q-53 0 -109 11t-109 34t-100.5 60.5t-83 90.5t-56.5 122.5t-21 158.5q0 20 0.5 41.5t3.5 44.5h-82q-15 0 -23.5 9.5t-8.5 25.5v4v2q2 12 4 25.5t4 25.5q3 17 17.5 29
t31.5 12h72q8 42 14 83t14 83h-71q-15 0 -25 10q-8 8 -8 25v4v2q2 12 4 25.5t4 25.5q3 17 16.5 29t30.5 12h76q28 110 71 194t96 145.5t114 103t126.5 66.5t133 35.5t133.5 10.5q65 0 116.5 -5t98.5 -13q23 -4 45.5 -8t44.5 -7q11 -2 19.5 -6t8.5 -16v-4z" />
    <glyph glyph-name="endash" unicode="&#x2013;" horiz-adv-x="870" 
d="M893 618l-14 -79q-4 -16 -16 -25.5t-29 -9.5h-619q-15 0 -24 7t-9 21v7l15 79q3 16 15.5 26.5t29.5 10.5h618q16 0 24.5 -8t8.5 -22v-7z" />
    <glyph glyph-name="emdash" unicode="&#x2014;" horiz-adv-x="1139" 
d="M1159 618l-14 -79q-3 -16 -15.5 -25.5t-29.5 -9.5h-885q-15 0 -24 7t-9 21v7l15 79q3 16 15.5 26.5t29.5 10.5h884q16 0 24.5 -8t8.5 -22v-7z" />
    <glyph glyph-name="quoteleft" unicode="&#x2018;" horiz-adv-x="381" 
d="M590 1528q0 -12 -6 -27l-144 -387q-8 -22 -19.5 -30.5t-27.5 -8.5h-121q-20 0 -20 17q0 10 6 22l193 387q11 22 21 30.5t26 8.5h77q15 0 15 -12z" />
    <glyph glyph-name="quoteright" unicode="&#x2019;" horiz-adv-x="381" 
d="M590 1524q0 -11 -6 -23l-193 -387q-11 -22 -20 -30.5t-25 -8.5h-78q-16 0 -16 15q0 9 6 24l143 387q8 22 21 30.5t29 8.5h120q19 0 19 -16z" />
    <glyph glyph-name="quotesinglbase" unicode="&#x201a;" horiz-adv-x="381" 
d="M387 248q0 -11 -6 -23l-221 -387q-11 -20 -19.5 -29.5t-25.5 -9.5h-84q-23 0 -23 19q0 8 6 20l185 387q17 39 49 39h119q20 0 20 -16z" />
    <glyph glyph-name="quotedblleft" unicode="&#x201c;" horiz-adv-x="688" 
d="M897 1528q0 -12 -6 -27l-143 -387q-8 -22 -20 -30.5t-28 -8.5h-120q-21 0 -21 17q0 10 6 22l193 387q11 22 21 30.5t26 8.5h78q14 0 14 -12zM590 1528q0 -12 -6 -27l-144 -387q-8 -22 -19.5 -30.5t-27.5 -8.5h-121q-20 0 -20 17q0 10 6 22l193 387q11 22 21 30.5t26 8.5
h77q15 0 15 -12z" />
    <glyph glyph-name="quotedblright" unicode="&#x201d;" horiz-adv-x="688" 
d="M897 1526q0 -11 -6 -23l-193 -387q-11 -22 -20 -30.5t-25 -8.5h-78q-16 0 -16 15q0 9 6 24l144 387q8 22 20.5 30.5t28.5 8.5h121q18 0 18 -16zM590 1526q0 -11 -6 -23l-193 -387q-11 -22 -20 -30.5t-25 -8.5h-78q-16 0 -16 15q0 9 6 24l143 387q8 22 21 30.5t29 8.5h120
q19 0 19 -16z" />
    <glyph glyph-name="quotedblbase" unicode="&#x201e;" horiz-adv-x="688" 
d="M727 248q0 -11 -6 -23l-221 -387q-11 -20 -19.5 -29.5t-25.5 -9.5h-84q-23 0 -23 19q0 8 6 20l185 387q17 39 49 39h119q20 0 20 -16zM358 248q0 -11 -6 -23l-221 -387q-11 -20 -19.5 -29.5t-25.5 -9.5h-84q-22 0 -22 19q0 8 6 20l184 387q17 39 49 39h119q20 0 20 -16z
" />
    <glyph glyph-name="dagger" unicode="&#x2020;" horiz-adv-x="827" 
d="M946 1106l-16 -92q-3 -16 -15.5 -24.5t-29.5 -8.5h-223l-164 -940q-3 -17 -13.5 -29t-27.5 -12h-117q-14 0 -20.5 8t-6.5 21q0 3 1 6t1 6l164 940h-192q-33 0 -33 27v6l16 92q3 15 15.5 23t29.5 8h193l63 364q3 16 14.5 27.5t28.5 11.5h115q12 0 18.5 -8t6.5 -21v-10
l-64 -364h223q33 0 33 -25v-6z" />
    <glyph glyph-name="daggerdbl" unicode="&#x2021;" horiz-adv-x="827" 
d="M946 1106l-16 -92q-3 -16 -15.5 -24.5t-29.5 -8.5h-223l-48 -274h224q32 0 32 -25v-6l-16 -92q-3 -16 -15.5 -24.5t-29.5 -8.5h-223l-88 -510q-3 -17 -13.5 -29t-27.5 -12h-117q-14 0 -20.5 8t-6.5 21q0 3 1 6t1 6l88 510h-192q-33 0 -33 27v6l17 92q3 15 15.5 23t29.5 8
h192l47 274h-192q-33 0 -33 27v6l16 92q3 15 15.5 23t29.5 8h193l63 364q3 16 14.5 27.5t28.5 11.5h115q12 0 18.5 -8t6.5 -21v-10l-64 -364h223q33 0 33 -25v-6z" />
    <glyph glyph-name="bullet" unicode="&#x2022;" horiz-adv-x="856" 
d="M897 752q0 -68 -25.5 -127.5t-69.5 -103.5t-103.5 -69.5t-127.5 -25.5t-127 25.5t-103 69.5t-69.5 103.5t-25.5 127.5q0 67 25.5 126.5t69.5 103.5t103 69.5t127 25.5t127.5 -25.5t103.5 -69.5t69.5 -103.5t25.5 -126.5z" />
    <glyph glyph-name="ellipsis" unicode="&#x2026;" horiz-adv-x="1241" 
d="M1163 231l-35 -192q-3 -17 -16 -28t-29 -11h-98q-14 0 -24.5 9.5t-10.5 23.5v6l35 192q3 16 17.5 27.5t29.5 11.5h98q14 0 23.5 -9t9.5 -23v-7zM752 231l-35 -192q-3 -17 -17.5 -28t-29.5 -11h-99q-14 0 -23 8.5t-9 24.5v6l34 192q4 16 17 27.5t28 11.5h99q14 0 24.5 -9
t10.5 -23v-7zM338 231l-35 -192q-3 -17 -16 -28t-29 -11h-98q-14 0 -24.5 9.5t-10.5 23.5v6l35 192q3 16 17 27.5t30 11.5h98q14 0 23.5 -9t9.5 -23v-7z" />
    <glyph glyph-name="perthousand" unicode="&#x2030;" horiz-adv-x="2322" 
d="M2329 602q0 -22 -2 -45.5t-7 -48.5l-34 -191q-16 -90 -45 -152.5t-71 -102.5t-96 -58t-120 -18q-51 0 -93 16t-72 47t-46.5 76.5t-16.5 103.5q0 43 9 88l34 191q16 88 45.5 150.5t71.5 102.5t96.5 58.5t120.5 18.5q107 0 166.5 -60t59.5 -176zM1632 602q0 -22 -1.5 -45.5
t-6.5 -48.5l-35 -191q-16 -90 -45 -152.5t-70.5 -102.5t-96 -58t-120.5 -18q-51 0 -93 16t-72 47t-46 76.5t-16 103.5q0 20 1.5 42.5t6.5 45.5l35 191q16 88 45.5 150.5t71.5 102.5t96.5 58.5t120.5 18.5q106 0 165.5 -60t59.5 -176zM1597 1511q0 -11 -14 -28l-1112 -1450
q-17 -22 -27.5 -31.5t-25.5 -9.5h-101q-16 0 -16 12q0 14 12 29l1112 1450q17 21 27.5 30t26.5 9h104q14 0 14 -11zM864 1300q0 -21 -1.5 -45t-6.5 -49l-35 -190q-16 -90 -45 -153t-70.5 -103t-96 -58t-120.5 -18q-51 0 -93 16t-72 47.5t-46 76.5t-16 104q0 20 1.5 42.5
t6.5 45.5l35 190q16 88 45.5 151t71.5 102.5t96.5 58t120.5 18.5q106 0 165.5 -60t59.5 -176zM2202 594q0 71 -31 100t-88 29q-33 0 -62.5 -11.5t-53.5 -37.5t-42 -67t-29 -99l-34 -191q-5 -24 -7 -45.5t-2 -40.5q0 -72 32 -100.5t89 -28.5q68 0 116.5 51.5t68.5 163.5
l34 191q5 25 7 46t2 40zM1505 594q0 71 -31 100t-88 29q-66 0 -115 -49t-71 -166l-35 -191q-5 -24 -6.5 -45.5t-1.5 -40.5q0 -72 32 -100.5t89 -28.5q68 0 116 51.5t68 163.5l35 191q5 25 6.5 46t1.5 40zM737 1292q0 71 -31 100t-88 29q-66 0 -115 -49t-71 -166l-35 -190
q-5 -25 -6.5 -46.5t-1.5 -39.5q0 -72 32 -100.5t89 -28.5q68 0 116 51t68 164l35 190q5 25 6.5 46.5t1.5 39.5z" />
    <glyph glyph-name="guilsinglleft" unicode="&#x2039;" horiz-adv-x="725" 
d="M797 977q0 -6 -4.5 -15.5t-12.5 -15.5l-430 -379l285 -379q3 -5 5.5 -10.5t2.5 -11.5q0 -9 -6 -16t-19 -7h-108q-12 0 -20 4t-19 17l-285 346q-9 11 -12.5 24t-3.5 27q0 20 7 37t18 27l407 346q16 12 27.5 16t23.5 4h125q19 0 19 -14z" />
    <glyph glyph-name="guilsinglright" unicode="&#x203a;" horiz-adv-x="725" 
d="M764 573q0 -20 -7 -37t-18 -26l-407 -346q-16 -13 -27.5 -17t-23.5 -4h-125q-10 0 -14.5 4.5t-4.5 10.5t4.5 15t12.5 15l430 379l-285 379q-3 5 -5.5 11t-2.5 12q0 9 6 15.5t18 6.5h109q12 0 20 -4t19 -16l285 -346q9 -11 12.5 -24.5t3.5 -27.5z" />
    <glyph glyph-name="trademark" unicode="&#x2122;" horiz-adv-x="1618" 
d="M1718 709q0 -21 -20 -21h-84q-9 0 -15 5.5t-6 15.5v491q0 61 -6 101.5t-27.5 65t-64.5 34.5t-117 10v-702q0 -21 -20 -21h-86q-9 0 -15 5.5t-6 15.5v702q-65 0 -119 -3.5t-98 -8.5v-690q0 -21 -18 -21h-84q-9 0 -15 5.5t-6 15.5v759q0 20 7 28.5t24 10.5
q90 10 183.5 15.5t189.5 5.5q106 0 182 -12.5t125 -48t72.5 -99.5t23.5 -168v-491zM838 1440q0 -16 -11.5 -22.5t-23.5 -6.5h-199v-690q0 -12 -9.5 -22.5t-23.5 -10.5h-65q-14 0 -22.5 10.5t-8.5 22.5v690h-203q-12 0 -22 6.5t-10 22.5v51q0 14 10 22.5t22 8.5h531
q12 0 23.5 -8.5t11.5 -22.5v-51z" />
    <glyph glyph-name="NULL" horiz-adv-x="0" 
 />
    </font>
</defs>
</svg>
